<svg xmlns="http://www.w3.org/2000/svg" viewBox="0 0 32 32" width="32" height="32" role="img" aria-label="Bartram Studio">
  <title>Bs</title>
  <rect width="32" height="32" rx="4" fill="#F7F4EF"/>
  <rect width="32" height="32" rx="4" fill="none" stroke="#4A7A70" stroke-width="1.5"/>
  <path fill="#3C3F41" transform="matrix(0.01,0,0,-0.01,4,26)" d="M40.583251953125 0V24.65948486328125H700.7248883928571Q781.6735229492188 24.65948486328125 844.9235229492188 73.8470458984375Q908.1735229492188 123.03460693359375 944.5259552001953 212.01730346679688Q980.8783874511719 301 980.8783874511719 420Q980.8783874511719 539 944.5259552001953 613.4913482666016Q908.1735229492188 687.9826965332031 844.9552075014276 722.8264770507812Q781.7368920536364 757.6702575683594 700.7742190603483 757.6702575683594H480.8783874511719V774.361083984375H761.245378408859Q917.1735229492188 774.361083984375 1043.9235229492188 739.0208129882812Q1170.6735229492188 703.6805419921875 1245.6735229492188 621.8402709960938Q1320.6735229492188 540 1320.6735229492188 400Q1320.6735229492188 182.5 1173.2233014290791 91.25Q1025.7730799089397 0 761.3600574694182 0ZM220.67352294921875 11.4443359375V1488.5556640625H531.1735229492188V11.4443359375ZM480.8783874511719 765.638916015625V782.6248779296875H680.8783874511719Q751.8783874511719 782.6248779296875 811.0259552001953 814.6735229492188Q870.1735229492188 846.72216796875 905.6735229492188 918.5659484863281Q941.1735229492188 990.4097290039062 941.1735229492188 1109.4097290039062Q941.1735229492188 1228.4097290039062 905.6735229492188 1309.8924255371094Q870.1735229492188 1391.3751220703125 810.9895773914373 1433.3578186035156Q751.8056318336559 1475.3405151367188 680.8783874511719 1475.3405151367188H40.583251953125V1500H721.1735229492188Q970.3783874511719 1500 1115.7759552001953 1412.5Q1261.1735229492188 1325 1261.1735229492188 1130Q1261.1735229492188 942.7951354980469 1123.4235229492188 854.2170257568359Q985.6735229492188 765.638916015625 721.1735229492188 765.638916015625Z"/>
  <path fill="#AFC8C0" transform="matrix(0.016,0,0,-0.016,18.09,27)" d="M112.919677734375 -51Q63.93975830078125 -51 34.4598388671875 -30.5Q4.97991943359375 -10 -7.510040283203125 20.989959716796875Q-20 51.97991943359375 -20 83.9598388671875Q-20 113.29986572265625 -12.0 129.29986572265625Q-4 145.29986572265625 7.829986572265625 152.96987915039062Q19.65997314453125 160.639892578125 30.15997314453125 164.639892578125Q40.65997314453125 168.639892578125 45.3199462890625 173.29986572265625Q72.02008056640625 201.6800537109375 98.01004028320312 236.69009399414062Q124 271.70013427734375 143 313.02008056640625V323.70013427734375Q143 362.6800537109375 156.15997314453125 378.84002685546875Q169.3199462890625 395 185.9598388671875 395Q196.5997314453125 395 201.58969116210938 389.6800537109375Q206.57965087890625 384.360107421875 207.2396240234375 377.38018798828125Q207.2396240234375 371.72021484375 204.56961059570312 362.70013427734375Q201.89959716796875 353.6800537109375 201.89959716796875 338.65997314453125Q201.89959716796875 307.639892578125 215.88955688476562 269.139892578125Q229.8795166015625 230.639892578125 243.86947631835938 187.80990600585938Q257.85943603515625 144.97991943359375 257.85943603515625 99.639892578125Q257.85943603515625 87.29986572265625 256.6894226074219 76.44979858398438Q255.5194091796875 65.5997314453125 253.17938232421875 55.919677734375Q285.53948974609375 63.2396240234375 315.8795166015625 89.39959716796875Q346.21954345703125 115.5595703125 373.89959716796875 168.919677734375L384.8795166015625 159.57965087890625Q365.8795166015625 103.25970458984375 329.199462890625 70.79986572265625Q292.5194091796875 38.34002685546875 245.53948974609375 30.6800537109375Q229.53948974609375 -11 193.71954345703125 -31.0Q157.89959716796875 -51 112.919677734375 -51ZM108.97991943359375 -10.06024169921875Q126.25970458984375 -10.06024169921875 144.27978515625 -0.74029541015625Q162.29986572265625 8.57965087890625 172.639892578125 32.34002685546875Q131.29986572265625 41 98.46987915039062 64.6800537109375Q65.639892578125 88.360107421875 48.3199462890625 112.70013427734375Q31.5997314453125 110.38018798828125 31.5997314453125 82.97991943359375Q31.5997314453125 48.9598388671875 51.449798583984375 19.449798583984375Q71.29986572265625 -10.06024169921875 108.97991943359375 -10.06024169921875ZM179.61981201171875 57.57965087890625Q181.61981201171875 65.5997314453125 182.28982543945312 75.60977172851562Q182.9598388671875 85.61981201171875 182.9598388671875 94.02008056640625Q182.29986572265625 139.70013427734375 171.12985229492188 184.55020141601562Q159.9598388671875 229.4002685546875 149.97991943359375 273.70013427734375Q130.27978515625 240.3199462890625 105.76974487304688 204.82998657226562Q81.25970458984375 169.34002685546875 59.57965087890625 147Q75.2396240234375 118.29986572265625 106.40963745117188 92.93975830078125Q137.57965087890625 67.57965087890625 179.61981201171875 57.57965087890625Z"/>
</svg>