<svg xmlns="http://www.w3.org/2000/svg" viewBox="0 0 510 88" width="510" height="88" role="img" aria-label="Bartram Studio — Art shaped by the shoreline">
  <title>Bartram Studio</title>

  <path fill="#3C3F41" transform="matrix(0.019,0,0,-0.019,32.3865,46)" d="M40.583251953125 0V24.65948486328125H700.7248883928571Q781.6735229492188 24.65948486328125 844.9235229492188 73.8470458984375Q908.1735229492188 123.03460693359375 944.5259552001953 212.01730346679688Q980.8783874511719 301 980.8783874511719 420Q980.8783874511719 539 944.5259552001953 613.4913482666016Q908.1735229492188 687.9826965332031 844.9552075014276 722.8264770507812Q781.7368920536364 757.6702575683594 700.7742190603483 757.6702575683594H480.8783874511719V774.361083984375H761.245378408859Q917.1735229492188 774.361083984375 1043.9235229492188 739.0208129882812Q1170.6735229492188 703.6805419921875 1245.6735229492188 621.8402709960938Q1320.6735229492188 540 1320.6735229492188 400Q1320.6735229492188 182.5 1173.2233014290791 91.25Q1025.7730799089397 0 761.3600574694182 0ZM220.67352294921875 11.4443359375V1488.5556640625H531.1735229492188V11.4443359375ZM480.8783874511719 765.638916015625V782.6248779296875H680.8783874511719Q751.8783874511719 782.6248779296875 811.0259552001953 814.6735229492188Q870.1735229492188 846.72216796875 905.6735229492188 918.5659484863281Q941.1735229492188 990.4097290039062 941.1735229492188 1109.4097290039062Q941.1735229492188 1228.4097290039062 905.6735229492188 1309.8924255371094Q870.1735229492188 1391.3751220703125 810.9895773914373 1433.3578186035156Q751.8056318336559 1475.3405151367188 680.8783874511719 1475.3405151367188H40.583251953125V1500H721.1735229492188Q970.3783874511719 1500 1115.7759552001953 1412.5Q1261.1735229492188 1325 1261.1735229492188 1130Q1261.1735229492188 942.7951354980469 1123.4235229492188 854.2170257568359Q985.6735229492188 765.638916015625 721.1735229492188 765.638916015625Z"/>
  <path fill="#3C3F41" transform="matrix(0.019,0,0,-0.019,64.8575,46)" d="M404.5173034667969 474.3091735839844V498.9686584472656H1000.6697692871094V474.3091735839844ZM875.9859619140625 1529.4097290039062 1397.6075744628906 24.65948486328125H1546.7810974121094V0H861.7637939453125V24.65948486328125H1038.4027099609375L663.4616394042969 1183.3264770507812L256.88165283203125 24.65948486328125H481.17352294921875V0H40.583251953125V24.65948486328125H228.12277791456253L758.27783203125 1529.4097290039062Z"/>
  <path fill="#3C3F41" transform="matrix(0.019,0,0,-0.019,100.7105,46)" d="M401.17352294921875 763.27783203125V778.7881164550781H690.9050082621601Q786.9790835623014 778.7881164550781 851.5763032557601 816.0294647216797Q916.1735229492188 853.2708129882812 948.6735229492188 930.1742475370795Q981.1735229492188 1007.0776820858777 981.1735229492188 1126.1632385253906Q981.1735229492188 1245.1632385253906 948.6735229492188 1322.5313415527344Q916.1735229492188 1399.8994445800781 851.4833859530363 1437.6199798583984Q786.7932489568537 1475.3405151367188 690.8783874511719 1475.3405151367188H40.583251953125V1500H740.9527398186762Q906.9228802242794 1500 1033.1506338377258 1460.6145935058594Q1159.3783874511719 1421.2291870117188 1230.2759552001953 1338.6962127685547Q1301.1735229492188 1256.1632385253906 1301.1735229492188 1126.1632385253906Q1301.1735229492188 996.1632385253906 1234.4235229492188 916.3039180117104Q1167.6735229492188 836.4445974980301 1042.233008344968 799.8612147646401Q916.7924937407175 763.27783203125 740.8783874511719 763.27783203125ZM40.583251953125 0V24.65948486328125H751.1735229492188V0ZM240.67352294921875 13.21514892578125V1486.4897155761719H550.8783874511719V13.21514892578125ZM1230.8783874511719 -15Q1128.8783874511719 -15 1070.6283874511719 17.30871450034805Q1012.3783874511719 49.6174290006961 984.8783874511719 104.59873024319312Q957.3783874511719 159.58003148569014 949.3783874511719 227.98903209552287Q941.3783874511719 296.3980327053556 940.6283874511719 369.36854463465073Q939.8783874511719 442.33905656394586 934.3783874511719 510.7480571737786Q928.8783874511719 579.1570577836113 906.8783874511719 634.1686988208612Q884.8783874511719 689.1803398581112 833.8563024689284 721.5069179759306Q782.834217486685 753.83349609375 690.795516184468 753.83349609375H401.17352294921875V767.8681030273438H850.8783874511719Q990.2661336263021 767.8681030273438 1071.6417185465496 727.5937805175781Q1153.0173034667969 687.3194580078125 1193.0173034667969 620.8854064941406Q1233.0173034667969 554.4513549804688 1245.7100067138672 475.1527099609375Q1258.4027099609375 395.85406494140625 1258.550277709961 316.555419921875Q1258.6978454589844 237.25677490234375 1261.1405487060547 170.82272338867188Q1263.583251953125 104.388671875 1282.6856842041016 64.11434936523438Q1301.7881164550781 23.84002685546875 1353.9027099609375 23.84002685546875Q1385.9027099609375 23.84002685546875 1413.644058227539 31.102188110351562Q1441.3854064941406 38.364349365234375 1462.0902709960938 48.364349365234375L1470.8783874511719 25.40972900390625Q1446.8783874511719 12.40972900390625 1382.9929809570312 -1.295135498046875Q1319.1075744628906 -15 1230.8783874511719 -15Z"/>
  <path fill="#3C3F41" transform="matrix(0.019,0,0,-0.019,134.9105,46)" d="M315.89569091796875 0V24.65948486328125H535.8956909179688V1475.3405151367188H410.8333248562283Q330.52510372878334 1475.3405151367188 270.88742979407914 1440.2918701171875Q211.249755859375 1405.2432250976562 169.7098576863607 1342.8751220703125Q128.16995951334636 1280.5070190429688 102.93319549560547 1197.7535095214844Q77.69643147786458 1115 66.19643147786459 1020H40.583251953125V1500H1340.9129943847656V1020H1315.9747594614498Q1304.9747594614498 1115 1279.487379730725 1197.7535095214844Q1254 1280.5070190429688 1212.3159484863281 1342.8751220703125Q1170.6318969726562 1405.2432250976562 1110.9027099609375 1440.2918701171875Q1051.1735229492188 1475.3405151367188 971.0938534206814 1475.3405151367188H845.8956909179688V24.65948486328125H1065.8956909179688V0Z"/>
  <path fill="#3C3F41" transform="matrix(0.019,0,0,-0.019,166.8305,46)" d="M401.17352294921875 763.27783203125V778.7881164550781H690.9050082621601Q786.9790835623014 778.7881164550781 851.5763032557601 816.0294647216797Q916.1735229492188 853.2708129882812 948.6735229492188 930.1742475370795Q981.1735229492188 1007.0776820858777 981.1735229492188 1126.1632385253906Q981.1735229492188 1245.1632385253906 948.6735229492188 1322.5313415527344Q916.1735229492188 1399.8994445800781 851.4833859530363 1437.6199798583984Q786.7932489568537 1475.3405151367188 690.8783874511719 1475.3405151367188H40.583251953125V1500H740.9527398186762Q906.9228802242794 1500 1033.1506338377258 1460.6145935058594Q1159.3783874511719 1421.2291870117188 1230.2759552001953 1338.6962127685547Q1301.1735229492188 1256.1632385253906 1301.1735229492188 1126.1632385253906Q1301.1735229492188 996.1632385253906 1234.4235229492188 916.3039180117104Q1167.6735229492188 836.4445974980301 1042.233008344968 799.8612147646401Q916.7924937407175 763.27783203125 740.8783874511719 763.27783203125ZM40.583251953125 0V24.65948486328125H751.1735229492188V0ZM240.67352294921875 13.21514892578125V1486.4897155761719H550.8783874511719V13.21514892578125ZM1230.8783874511719 -15Q1128.8783874511719 -15 1070.6283874511719 17.30871450034805Q1012.3783874511719 49.6174290006961 984.8783874511719 104.59873024319312Q957.3783874511719 159.58003148569014 949.3783874511719 227.98903209552287Q941.3783874511719 296.3980327053556 940.6283874511719 369.36854463465073Q939.8783874511719 442.33905656394586 934.3783874511719 510.7480571737786Q928.8783874511719 579.1570577836113 906.8783874511719 634.1686988208612Q884.8783874511719 689.1803398581112 833.8563024689284 721.5069179759306Q782.834217486685 753.83349609375 690.795516184468 753.83349609375H401.17352294921875V767.8681030273438H850.8783874511719Q990.2661336263021 767.8681030273438 1071.6417185465496 727.5937805175781Q1153.0173034667969 687.3194580078125 1193.0173034667969 620.8854064941406Q1233.0173034667969 554.4513549804688 1245.7100067138672 475.1527099609375Q1258.4027099609375 395.85406494140625 1258.550277709961 316.555419921875Q1258.6978454589844 237.25677490234375 1261.1405487060547 170.82272338867188Q1263.583251953125 104.388671875 1282.6856842041016 64.11434936523438Q1301.7881164550781 23.84002685546875 1353.9027099609375 23.84002685546875Q1385.9027099609375 23.84002685546875 1413.644058227539 31.102188110351562Q1441.3854064941406 38.364349365234375 1462.0902709960938 48.364349365234375L1470.8783874511719 25.40972900390625Q1446.8783874511719 12.40972900390625 1382.9929809570312 -1.295135498046875Q1319.1075744628906 -15 1230.8783874511719 -15Z"/>
  <path fill="#3C3F41" transform="matrix(0.019,0,0,-0.019,201.0305,46)" d="M404.5173034667969 474.3091735839844V498.9686584472656H1000.6697692871094V474.3091735839844ZM875.9859619140625 1529.4097290039062 1397.6075744628906 24.65948486328125H1546.7810974121094V0H861.7637939453125V24.65948486328125H1038.4027099609375L663.4616394042969 1183.3264770507812L256.88165283203125 24.65948486328125H481.17352294921875V0H40.583251953125V24.65948486328125H228.12277791456253L758.27783203125 1529.4097290039062Z"/>
  <path fill="#3C3F41" transform="matrix(0.019,0,0,-0.019,236.8835,46)" d="M762.9129943847656 -20 206.91299438476562 1500H518.6374438103828L919.1178588867188 423.9340515136719L1294.1908264160156 1500H1320.916259765625L792.6141052246094 -20ZM219.8330078125 1500V24.65948486328125H370.61083984375V0H50.67352294921875V24.65948486328125H193.69784545898438V1475.3405151367188H40.583251953125V1500ZM1763.6038208007812 1500V1475.3405151367188H1623.3086853027344V24.65948486328125H1763.6038208007812V0H1153.1038208007812V24.65948486328125H1313.6038208007812V1500Z"/>
  <path fill="#3C3F41" transform="matrix(0.019,0,0,-0.019,292.0405,46)" d="M626.3956909179688 -29.40972900390625Q514.5762329101562 -29.40972900390625 430.83839416503906 6.704864501953125Q347.1005554199219 42.8194580078125 286.6248779296875 104.43405151367188L113.971923828125 -20H91.37838745117188V450.2951354980469H116.74273681640625Q144.85733032226562 365.22216796875 186.471923828125 284.3089294433594Q228.08651733398438 203.39569091796875 287.52056884765625 138.3470458984375Q346.9546203613281 73.29840087890625 427.56056213378906 34.774078369140625Q508.16650390625 -3.750244140625 614.8540649414062 -3.750244140625Q710.2637939453125 -3.750244140625 779.2637939453125 32.54840087890625Q848.2637939453125 68.8470458984375 885.4113616943359 133.3175811767578Q922.5589294433594 197.78811645507812 922.5589294433594 282.95135498046875Q922.5589294433594 364.45135498046875 878.8540649414062 419.3037872314453Q835.1492004394531 474.1562194824219 763.2967681884766 514.0086517333984Q691.4443359375 553.861083984375 605.3870391845703 589.4183807373047Q519.3297424316406 624.9756774902344 433.27244567871094 666.4305419921875Q347.21514892578125 707.8854064941406 275.3627166748047 766.3402709960938Q203.51028442382812 824.7951354980469 159.805419921875 910.3975677490234Q116.10055541992188 996 116.10055541992188 1120Q116.10055541992188 1245.2951354980469 178.40785217285156 1334.8975677490234Q240.71514892578125 1424.5 342.1127166748047 1472.25Q443.5102844238281 1520 560.3956909179688 1520Q650.5102844238281 1520 726.4981231689453 1491.2951354980469Q802.4859619140625 1462.5902709960938 861.66650390625 1406.0659484863281L1029.7048645019531 1520H1050.8227233886719V1069.4097290039062H1025.7535095214844Q985.7535095214844 1201.5313415527344 922.7170257568359 1296.4567413330078Q859.6805419921875 1391.3821411132812 772.4600067138672 1441.9186248779297Q685.2394714355469 1492.4551086425781 573.0519104003906 1492.4551086425781Q453.027587890625 1492.4551086425781 390.1543426513672 1428.505386352539Q327.2810974121094 1364.5556640625 327.2810974121094 1264.0972900390625Q327.2810974121094 1191.3021545410156 370.63352966308594 1140.5972900390625Q413.9859619140625 1089.8924255371094 484.9859619140625 1050.6875610351562Q555.9859619140625 1011.4826965332031 641.3383941650391 974.6753997802734Q726.6908264160156 937.8681030273438 811.8956909179688 893.7083740234375Q897.1005554199219 849.5486450195312 968.1005554199219 788.638916015625Q1039.1005554199219 727.7291870117188 1082.4529876708984 640.8194580078125Q1125.805419921875 553.9097290039062 1125.805419921875 430Q1125.805419921875 290 1059.805419921875 186.89756774902344Q993.805419921875 83.79513549804688 880.6005554199219 27.192703247070312Q767.3956909179688 -29.40972900390625 626.3956909179688 -29.40972900390625Z"/>
  <path fill="#3C3F41" transform="matrix(0.019,0,0,-0.019,320.5975,46)" d="M315.89569091796875 0V24.65948486328125H535.8956909179688V1475.3405151367188H410.8333248562283Q330.52510372878334 1475.3405151367188 270.88742979407914 1440.2918701171875Q211.249755859375 1405.2432250976562 169.7098576863607 1342.8751220703125Q128.16995951334636 1280.5070190429688 102.93319549560547 1197.7535095214844Q77.69643147786458 1115 66.19643147786459 1020H40.583251953125V1500H1340.9129943847656V1020H1315.9747594614498Q1304.9747594614498 1115 1279.487379730725 1197.7535095214844Q1254 1280.5070190429688 1212.3159484863281 1342.8751220703125Q1170.6318969726562 1405.2432250976562 1110.9027099609375 1440.2918701171875Q1051.1735229492188 1475.3405151367188 971.0938534206814 1475.3405151367188H845.8956909179688V24.65948486328125H1065.8956909179688V0Z"/>
  <path fill="#3C3F41" transform="matrix(0.019,0,0,-0.019,352.5175,46)" d="M1423.8297424316406 1500V1475.3405151367188H1231.4373168945312V460Q1231.4373168945312 213 1117.272445678711 91.79513549804688Q1003.1075744628906 -29.40972900390625 758.6075744628906 -29.40972900390625Q477.1075744628906 -29.40972900390625 347.8575744628906 85.79513549804688Q218.60757446289062 201 218.60757446289062 460V1475.3405151367188H38.81243896484375V1500H729.1075744628906V1475.3405151367188H529.1075744628906V480Q529.1075744628906 381 540.9933231060322 295.37872823079425Q552.8790717491737 209.75745646158853 585.333594102126 145.84738667805988Q617.7881164550781 81.93731689453125 678.2308380126954 45.83137512207031Q738.6735595703125 9.725433349609375 835.083251953125 9.725433349609375Q948.1805419921875 9.725433349609375 1031.671890258789 55.69596862792969Q1115.1632385253906 101.66650390625 1160.9705352783203 200.85406494140625Q1206.77783203125 300.0416259765625 1206.77783203125 460V1475.3405151367188H1022.7048645019531V1500Z"/>
  <path fill="#3C3F41" transform="matrix(0.019,0,0,-0.019,386.0715,46)" d="M680.7902146067809 1500Q918.6735229492188 1500 1088.7398875061895 1405.5Q1258.8062520631602 1311 1349.842319757166 1142.0Q1440.8783874511719 973 1440.8783874511719 750Q1440.8783874511719 582.5 1386.5259552001953 445.0Q1332.1735229492188 307.5 1231.6735229492188 207.75Q1131.1735229492188 108 991.4235229492188 54.0Q851.6735229492188 0 680.6735229492188 0H40.583251953125V24.65948486328125H220.67352294921875V1475.3405151367188H40.583251953125V1500ZM531.1735229492188 24.65948486328125H680.6735229492188Q796.1735229492188 24.65948486328125 874.9235229492188 81.91299438476562Q953.6735229492188 139.16650390625 1001.1735229492188 239.57974243164062Q1048.6735229492188 339.99298095703125 1069.6735229492188 471.2464904785156Q1090.6735229492188 602.5 1090.6735229492188 750.2048645019531Q1090.6735229492188 897.7048645019531 1066.9235229492188 1028.810665372686Q1043.1735229492188 1159.9164662434184 993.6735229492188 1260.3749811685843Q944.1735229492188 1360.83349609375 866.6735229492188 1418.0870056152344Q789.1735229492188 1475.3405151367188 680.6735229492188 1475.3405151367188H531.1735229492188Z"/>
  <path fill="#3C3F41" transform="matrix(0.019,0,0,-0.019,420.8225,46)" d="M40.583251953125 0V24.65948486328125H260.60418419471154V1475.3405151367188H40.583251953125V1500H810.8783874511719V1475.3405151367188H570.9540297288161V24.65948486328125H810.8783874511719V0Z"/>
  <path fill="#3C3F41" transform="matrix(0.019,0,0,-0.019,442.6915,46)" d="M769.9686584472656 -20Q610.3888138208633 -20 484.3263038830879 38.25Q358.2637939453125 96.5 270.11622619628906 201.39756774902344Q181.96865844726562 306.2951354980469 135.86622619628906 446.36023481017094Q89.7637939453125 586.425334122295 89.7637939453125 750Q89.7637939453125 913.574665877705 138.5514559042574 1053.6397651898292Q187.33911786320235 1193.7048645019531 277.3062153825856 1298.6024322509766Q367.2733129019689 1403.5 492.37098567461726 1461.75Q617.4686584472656 1520 769.9686584472656 1520Q922.4686584472656 1520 1047.2186584472656 1461.75Q1171.9686584472656 1403.5 1262.2186584472656 1298.6024322509766Q1352.4686584472656 1193.7048645019531 1400.9686584472656 1053.6397651898292Q1449.4686584472656 913.574665877705 1449.4686584472656 750Q1449.4686584472656 586.425334122295 1403.4686584472656 446.36023481017094Q1357.4686584472656 306.2951354980469 1269.5710906982422 201.39756774902344Q1181.6735229492188 96.5 1055.6110130114434 38.25Q929.5485030736679 -20 769.9686584472656 -20ZM769.9686584472656 3.183807373046875Q874.4686584472656 3.183807373046875 939.2186584472656 60.982452392578125Q1003.9686584472656 118.78109741210938 1039.116226196289 221.34190368652344Q1074.2637939453125 323.9027099609375 1087.0137939453125 459.45135498046875Q1099.7637939453125 595 1099.7637939453125 750.2048645019531Q1099.7637939453125 905.2048645019531 1084.116226196289 1040.6510772705078Q1068.4686584472656 1176.0972900390625 1031.616226196289 1278.6580963134766Q994.7637939453125 1381.2189025878906 930.821706172013 1439.0175476074219Q866.8796183987135 1496.8161926269531 769.9686584472656 1496.8161926269531Q673.4686584472656 1496.8161926269531 609.2186584472656 1438.9747247600235Q544.9686584472656 1381.133256893094 507.9686584472656 1278.6025979032484Q470.9686584472656 1176.0719389134028 455.2186584472656 1040.638401707678Q439.4686584472656 905.2048645019531 439.4686584472656 750.1024322509766Q439.4686584472656 595 452.4686584472656 459.4064766363954Q465.4686584472656 323.8129532727908 500.4686584472656 221.3184367661492Q535.4686584472656 118.8239202595076 600.7186584472656 61.00386381627724Q665.9686584472656 3.183807373046875 769.9686584472656 3.183807373046875Z"/>
  <path fill="#8BA8A0" transform="matrix(0.05,0,0,-0.0333,89.6667,68.0)" d="M36.13922119140625 -87Q8.85943603515625 -72.02008056640625 1.53948974609375 -55.870147705078125Q-5.78045654296875 -39.72021484375 -5.78045654296875 -28.4002685546875Q-5.78045654296875 -1.06024169921875 14.0595703125 45.289825439453125Q33.89959716796875 91.639892578125 67.40963745117188 151.48995971679688Q100.919677734375 211.34002685546875 142.919677734375 276.02008056640625Q109.8795166015625 278.360107421875 82.5595703125 279.360107421875Q55.2396240234375 280.360107421875 19.74029541015625 280.360107421875H-2.72021484375Q10.25970458984375 313.97991943359375 39.7396240234375 327.4598388671875Q69.21954345703125 340.93975830078125 109.199462890625 340.93975830078125Q126.199462890625 340.93975830078125 144.52944946289062 338.93975830078125Q162.85943603515625 336.93975830078125 182.5194091796875 334.5997314453125Q232.85943603515625 408.29986572265625 283.0595703125 475.1900939941406Q333.25970458984375 542.080322265625 377.77978515625 595.2804565429688Q422.29986572265625 648.4805908203125 455.27978515625 680.1204833984375Q496.81927490234375 721.3199462890625 517.7991943359375 721.3199462890625Q530.7791137695312 721.3199462890625 546.9190063476562 711.1700134277344Q563.0588989257812 701.0200805664062 580.6987915039062 684.7001342773438Q570.6987915039062 676.7001342773438 555.1987915039062 643.1900939941406Q539.6987915039062 609.6800537109375 522.1987915039062 558.6700134277344Q504.69879150390625 507.65997314453125 487.3688049316406 446.97991943359375Q470.038818359375 386.29986572265625 455.8688049316406 323.4497985839844Q441.69879150390625 260.5997314453125 433.19879150390625 203.58969116210938Q424.69879150390625 146.57965087890625 424.69879150390625 103.2396240234375Q424.69879150390625 63.919677734375 432.8688049316406 43.909637451171875Q441.038818359375 23.89959716796875 460.37884521484375 23.89959716796875Q484.39892578125 23.89959716796875 518.0588989257812 59.2396240234375Q551.7188720703125 94.57965087890625 592.6987915039062 172.5595703125L607.9785766601562 156.61981201171875Q577.318603515625 75.29986572265625 528.8386840820312 22.97991943359375Q480.3587646484375 -29.34002685546875 426.39892578125 -29.34002685546875Q380.77911376953125 -29.34002685546875 361.2891540527344 10.4598388671875Q341.7991943359375 50.25970458984375 341.7991943359375 118.5194091796875Q341.7991943359375 144.57965087890625 345.3092346191406 176.639892578125Q348.81927490234375 208.70013427734375 356.1593017578125 251.02008056640625Q312.1593017578125 258.02008056640625 277.3092346191406 262.1900939941406Q242.45916748046875 266.360107421875 211.45916748046875 270.360107421875Q163.7991943359375 184.6800537109375 118.96920776367188 93.34002685546875Q74.13922119140625 2 36.13922119140625 -87ZM365.13922119140625 295.25970458984375Q378.81927490234375 356.639892578125 397.1693420410156 419.52008056640625Q415.5194091796875 482.4002685546875 436.03948974609375 539.7704162597656Q456.5595703125 597.1405639648438 475.89959716796875 641.8206176757812Q445.5595703125 619.520751953125 407.3694763183594 573.3306579589844Q369.17938232421875 527.1405639648438 327.1492614746094 463.2503356933594Q285.119140625 399.360107421875 241.41900634765625 323.61981201171875Q272.77911376953125 317.27978515625 303.9692077636719 309.7697448730469Q335.1593017578125 302.25970458984375 365.13922119140625 295.25970458984375Z"/>
  <path fill="#8BA8A0" transform="matrix(0.05,0,0,-0.0333,120.5667,68.0)" d="M180.919677734375 -26Q144.93975830078125 -26 123.12985229492188 -7.010040283203125Q101.3199462890625 11.97991943359375 101.3199462890625 43.61981201171875Q101.3199462890625 72.29986572265625 115.3199462890625 104.639892578125Q129.3199462890625 136.97991943359375 143.47991943359375 168.48995971679688Q157.639892578125 200 157.639892578125 224.6800537109375Q157.639892578125 250.74029541015625 141.44979858398438 266.24029541015625Q125.25970458984375 281.74029541015625 105.5997314453125 292.7603759765625Q83.25970458984375 236.4002685546875 56.609771728515625 184.39022827148438Q29.9598388671875 132.38018798828125 13.29986572265625 104.06024169921875L0.34002685546875 128.97991943359375Q14.34002685546875 154.97991943359375 37.170013427734375 203.65997314453125Q60 252.34002685546875 81.34002685546875 313.0401611328125Q71.34002685546875 323.0401611328125 71.34002685546875 339.02008056640625Q71.34002685546875 366.38018798828125 87.6800537109375 388.02008056640625Q104.02008056640625 409.65997314453125 116.639892578125 409.65997314453125Q128.29986572265625 409.65997314453125 132.43975830078125 397.52008056640625Q136.57965087890625 385.38018798828125 136.57965087890625 380.38018798828125Q136.57965087890625 375.38018798828125 131.7396240234375 361.8701477050781Q126.89959716796875 348.360107421875 125.57965087890625 343.38018798828125Q126.2396240234375 331.360107421875 142.39959716796875 320.52008056640625Q158.5595703125 309.6800537109375 179.21954345703125 295.5100402832031Q199.8795166015625 281.34002685546875 215.70950317382812 260.5100402832031Q231.53948974609375 239.6800537109375 231.53948974609375 207.6800537109375Q231.53948974609375 178.34002685546875 218.70950317382812 148.0Q205.8795166015625 117.65997314453125 193.04953002929688 90.97991943359375Q180.21954345703125 64.29986572265625 180.21954345703125 44.61981201171875Q180.21954345703125 29.25970458984375 188.22958374023438 24.249664306640625Q196.2396240234375 19.2396240234375 206.919677734375 19.2396240234375Q230.919677734375 19.2396240234375 256.7496643066406 33.909637451171875Q282.57965087890625 48.57965087890625 307.2396240234375 71.57965087890625Q331.89959716796875 94.57965087890625 350.89959716796875 120.07965087890625Q369.89959716796875 145.57965087890625 379.5595703125 166.919677734375L399.81927490234375 151.639892578125Q380.81927490234375 108.97991943359375 345.83935546875 67.8199462890625Q310.85943603515625 26.65997314453125 268.0495300292969 0.329986572265625Q225.2396240234375 -26 180.919677734375 -26Z"/>
  <path fill="#8BA8A0" transform="matrix(0.05,0,0,-0.0333,138.4667,68.0)" d="M88.9598388671875 -46Q45.29986572265625 -46 19.65997314453125 -20.34002685546875Q-5.97991943359375 5.3199462890625 -5.97991943359375 56.9598388671875Q-5.97991943359375 98.97991943359375 9.860107421875 161.17001342773438Q25.70013427734375 223.360107421875 50.0401611328125 289.38018798828125Q42.02008056640625 291.38018798828125 32.690093994140625 292.88018798828125Q23.360107421875 294.38018798828125 14.70013427734375 298.0401611328125V324.61981201171875Q27.97991943359375 322.9598388671875 38.649932861328125 321.9598388671875Q49.3199462890625 320.9598388671875 61.34002685546875 319.9598388671875Q82.34002685546875 373.29986572265625 106.67001342773438 423.139892578125Q131 472.97991943359375 155.15997314453125 512.1499328613281Q179.3199462890625 551.3199462890625 201.14993286132812 574.1599731445312Q222.97991943359375 597 239.29986572265625 597Q248.61981201171875 597 256.7697448730469 590.1800537109375Q264.919677734375 583.360107421875 264.919677734375 570.3801879882812Q264.919677734375 551.4002685546875 244.24966430664062 513.8902282714844Q223.57965087890625 476.38018798828125 193.2396240234375 425.6900939941406Q162.89959716796875 375 134.5595703125 316.9598388671875Q142.89959716796875 316.9598388671875 151.40963745117188 316.9598388671875Q159.919677734375 316.9598388671875 167.5997314453125 316.9598388671875Q207.85943603515625 316.9598388671875 243.699462890625 318.2898254394531Q279.53948974609375 319.61981201171875 316.53948974609375 323.61981201171875V295.72021484375Q261.53948974609375 290.38018798828125 216.38955688476562 287.38018798828125Q171.2396240234375 284.38018798828125 131.9598388671875 283.72021484375Q128.61981201171875 283.72021484375 125.44979858398438 283.72021484375Q122.27978515625 283.72021484375 118.93975830078125 283.72021484375Q97.25970458984375 233.360107421875 81.58969116210938 180.32998657226562Q65.919677734375 127.29986572265625 65.919677734375 76.93975830078125Q65.919677734375 35.25970458984375 78.919677734375 17.749664306640625Q91.919677734375 0.2396240234375 120.5997314453125 0.2396240234375Q171.27978515625 0.2396240234375 222.92971801757812 45.909637451171875Q274.57965087890625 91.57965087890625 313.2396240234375 169.919677734375L326.89959716796875 159.919677734375Q301.57965087890625 101.93975830078125 263.75970458984375 54.9598388671875Q225.93975830078125 7.97991943359375 181.27978515625 -19.010040283203125Q136.61981201171875 -46 88.9598388671875 -46Z"/>
  <path fill="#8BA8A0" transform="matrix(0.05,0,0,-0.0333,165.8167,68.0)" d="M112.919677734375 -51Q63.93975830078125 -51 34.4598388671875 -30.5Q4.97991943359375 -10 -7.510040283203125 20.989959716796875Q-20 51.97991943359375 -20 83.9598388671875Q-20 113.29986572265625 -12.0 129.29986572265625Q-4 145.29986572265625 7.829986572265625 152.96987915039062Q19.65997314453125 160.639892578125 30.15997314453125 164.639892578125Q40.65997314453125 168.639892578125 45.3199462890625 173.29986572265625Q72.02008056640625 201.6800537109375 98.01004028320312 236.69009399414062Q124 271.70013427734375 143 313.02008056640625V323.70013427734375Q143 362.6800537109375 156.15997314453125 378.84002685546875Q169.3199462890625 395 185.9598388671875 395Q196.5997314453125 395 201.58969116210938 389.6800537109375Q206.57965087890625 384.360107421875 207.2396240234375 377.38018798828125Q207.2396240234375 371.72021484375 204.56961059570312 362.70013427734375Q201.89959716796875 353.6800537109375 201.89959716796875 338.65997314453125Q201.89959716796875 307.639892578125 215.88955688476562 269.139892578125Q229.8795166015625 230.639892578125 243.86947631835938 187.80990600585938Q257.85943603515625 144.97991943359375 257.85943603515625 99.639892578125Q257.85943603515625 87.29986572265625 256.6894226074219 76.44979858398438Q255.5194091796875 65.5997314453125 253.17938232421875 55.919677734375Q285.53948974609375 63.2396240234375 315.8795166015625 89.39959716796875Q346.21954345703125 115.5595703125 373.89959716796875 168.919677734375L384.8795166015625 159.57965087890625Q365.8795166015625 103.25970458984375 329.199462890625 70.79986572265625Q292.5194091796875 38.34002685546875 245.53948974609375 30.6800537109375Q229.53948974609375 -11 193.71954345703125 -31.0Q157.89959716796875 -51 112.919677734375 -51ZM108.97991943359375 -10.06024169921875Q126.25970458984375 -10.06024169921875 144.27978515625 -0.74029541015625Q162.29986572265625 8.57965087890625 172.639892578125 32.34002685546875Q131.29986572265625 41 98.46987915039062 64.6800537109375Q65.639892578125 88.360107421875 48.3199462890625 112.70013427734375Q31.5997314453125 110.38018798828125 31.5997314453125 82.97991943359375Q31.5997314453125 48.9598388671875 51.449798583984375 19.449798583984375Q71.29986572265625 -10.06024169921875 108.97991943359375 -10.06024169921875ZM179.61981201171875 57.57965087890625Q181.61981201171875 65.5997314453125 182.28982543945312 75.60977172851562Q182.9598388671875 85.61981201171875 182.9598388671875 94.02008056640625Q182.29986572265625 139.70013427734375 171.12985229492188 184.55020141601562Q159.9598388671875 229.4002685546875 149.97991943359375 273.70013427734375Q130.27978515625 240.3199462890625 105.76974487304688 204.82998657226562Q81.25970458984375 169.34002685546875 59.57965087890625 147Q75.2396240234375 118.29986572265625 106.40963745117188 92.93975830078125Q137.57965087890625 67.57965087890625 179.61981201171875 57.57965087890625Z"/>
  <path fill="#8BA8A0" transform="matrix(0.05,0,0,-0.0333,183.2667,68.0)" d="M46.34002685546875 -38Q25.360107421875 -38 15.350067138671875 -4.6800537109375Q5.34002685546875 28.639892578125 5.34002685546875 71.93975830078125Q5.34002685546875 118.61981201171875 21.010040283203125 183.9598388671875Q36.6800537109375 249.29986572265625 63.010040283203125 321.639892578125Q89.34002685546875 393.97991943359375 121.84002685546875 463.3199462890625Q154.34002685546875 532.6599731445312 188.67001342773438 589.3299865722656Q223 646 253.98995971679688 680.0Q284.97991943359375 714 308.29986572265625 714Q328.27978515625 714 338.0896911621094 691.5100402832031Q347.89959716796875 669.0200805664062 347.89959716796875 645.72021484375Q347.89959716796875 618.3801879882812 335.39959716796875 578.7101745605469Q322.89959716796875 539.0401611328125 300.89959716796875 493.8701477050781Q278.89959716796875 448.70013427734375 249.56961059570312 405.0301208496094Q220.2396240234375 361.360107421875 185.90963745117188 325.1900939941406Q151.57965087890625 289.02008056640625 115.25970458984375 267.360107421875Q102.5997314453125 235.06024169921875 94.75970458984375 203.35006713867188Q86.919677734375 171.639892578125 83.57965087890625 142.74966430664062Q80.2396240234375 113.85943603515625 80.2396240234375 88.17938232421875Q80.2396240234375 81.13922119140625 80.7396240234375 74.78915405273438Q81.2396240234375 68.4390869140625 81.57965087890625 62.759033203125Q88.97991943359375 80.65997314453125 100.53012084960938 110.25033569335938Q112.080322265625 139.8406982421875 128.77041625976562 173.00067138671875Q145.46051025390625 206.16064453125 167.95046997070312 235.9404296875Q190.4404296875 265.72021484375 219.06024169921875 284.5Q247.6800537109375 303.27978515625 283.25970458984375 303.27978515625Q315.21954345703125 303.27978515625 333.3694763183594 288.4598388671875Q351.5194091796875 273.639892578125 359.3493957519531 251.8199462890625Q367.17938232421875 230 367.17938232421875 207.34002685546875Q367.17938232421875 175.6800537109375 356.67938232421875 147.34002685546875Q346.17938232421875 119 335.5093688964844 93.64993286132812Q324.83935546875 68.29986572265625 324.83935546875 45.27978515625Q324.83935546875 26.5997314453125 333.0093688964844 18.919677734375Q341.17938232421875 11.2396240234375 352.85943603515625 11.2396240234375Q375.199462890625 11.2396240234375 404.35943603515625 33.2396240234375Q433.5194091796875 55.2396240234375 462.5093688964844 91.7396240234375Q491.49932861328125 128.2396240234375 512.1593017578125 171.89959716796875L527.1392211914062 156.5997314453125Q504.81927490234375 106.93975830078125 474.1593017578125 65.78982543945312Q443.49932861328125 24.639892578125 406.83935546875 0.3199462890625Q370.17938232421875 -24 328.53948974609375 -24Q291.89959716796875 -24 272.7496643066406 -4.6800537109375Q253.5997314453125 14.639892578125 253.5997314453125 43.61981201171875Q253.5997314453125 64.61981201171875 261.2697448730469 90.28982543945312Q268.93975830078125 115.9598388671875 276.1097717285156 142.29986572265625Q283.27978515625 168.639892578125 283.27978515625 190.65997314453125Q283.27978515625 215.34002685546875 272.6097717285156 225.02008056640625Q261.93975830078125 234.70013427734375 246.5997314453125 234.70013427734375Q221.5997314453125 234.70013427734375 201.5997314453125 215.03012084960938Q181.5997314453125 195.360107421875 165.42971801757812 164.19009399414062Q149.25970458984375 133.02008056640625 135.08969116210938 98.35006713867188Q120.919677734375 63.6800537109375 107.25970458984375 32.510040283203125Q93.5997314453125 1.34002685546875 78.94979858398438 -18.329986572265625Q64.29986572265625 -38 46.34002685546875 -38ZM133.53948974609375 322.85943603515625Q160.21954345703125 345.5194091796875 185.06961059570312 378.199462890625Q209.919677734375 410.8795166015625 231.26974487304688 446.7396240234375Q252.61981201171875 482.5997314453125 268.9698791503906 516.6298522949219Q285.3199462890625 550.6599731445312 294.65997314453125 578.0200805664062Q304 605.3801879882812 304.65997314453125 619.72021484375Q304.65997314453125 622.080322265625 304.3199462890625 622.9203491210938Q303.97991943359375 623.7603759765625 303.29986572265625 624.4203491210938Q296.9598388671875 624.4203491210938 276.77978515625 598.9002685546875Q256.5997314453125 573.3801879882812 230.24966430664062 530.3500671386719Q203.89959716796875 487.3199462890625 177.88955688476562 433.27978515625Q151.8795166015625 379.2396240234375 133.53948974609375 322.85943603515625Z"/>
  <path fill="#8BA8A0" transform="matrix(0.05,0,0,-0.0333,207.6667,68.0)" d="M53.27978515625 -47Q20.9598388671875 -47 -2.52008056640625 -25.510040283203125Q-26 -4.02008056640625 -26 39.29986572265625Q-26 74.639892578125 -10.0 115.80990600585938Q6 156.97991943359375 34.0 197.14993286132812Q62 237.3199462890625 97.82998657226562 270.15997314453125Q133.65997314453125 303 174.14993286132812 323.0Q214.639892578125 343 254.9598388671875 343Q296.5997314453125 343 325.2396240234375 321.5100402832031Q353.8795166015625 300.02008056640625 353.8795166015625 264.70013427734375Q353.8795166015625 238.38018798828125 336.7496643066406 227.4002685546875Q319.61981201171875 216.42034912109375 294.97991943359375 219.72021484375Q296.97991943359375 228.38018798828125 298.47991943359375 237.55020141601562Q299.97991943359375 246.72021484375 299.97991943359375 256.0401611328125Q299.97991943359375 277.06024169921875 290.9598388671875 293.2302551269531Q281.93975830078125 309.4002685546875 255.5997314453125 309.4002685546875Q227.5997314453125 309.4002685546875 198.5997314453125 290.2302551269531Q169.5997314453125 271.06024169921875 142.92971801757812 239.88018798828125Q116.25970458984375 208.70013427734375 95.25970458984375 171.69009399414062Q74.25970458984375 134.6800537109375 62.25970458984375 99.0Q50.25970458984375 63.3199462890625 50.25970458984375 34.97991943359375Q50.25970458984375 0.5997314453125 74.61981201171875 0.5997314453125Q97.61981201171875 0.5997314453125 125.27978515625 22.75970458984375Q152.93975830078125 44.919677734375 181.43975830078125 78.74966430664062Q209.93975830078125 112.57965087890625 235.93975830078125 148.24966430664062Q261.93975830078125 183.919677734375 281.27978515625 210.61981201171875Q284.61981201171875 215.9598388671875 288.25970458984375 215.9598388671875Q292.93975830078125 214.9598388671875 303.75970458984375 211.62985229492188Q314.57965087890625 208.29986572265625 323.5595703125 201.97991943359375Q332.53948974609375 195.65997314453125 332.53948974609375 185.6800537109375Q332.53948974609375 176.02008056640625 323.8694763183594 160.52008056640625Q315.199462890625 145.02008056640625 303.8694763183594 126.01004028320312Q292.53948974609375 107 283.8694763183594 87.8199462890625Q275.199462890625 68.639892578125 275.199462890625 51.29986572265625Q275.199462890625 37.61981201171875 282.53948974609375 25.0997314453125Q289.8795166015625 12.57965087890625 306.5595703125 12.57965087890625Q331.57965087890625 12.57965087890625 375.2496643066406 49.43975830078125Q418.919677734375 86.29986572265625 463.919677734375 169.25970458984375L479.85943603515625 153.3199462890625Q456.8795166015625 99.3199462890625 423.5495300292969 57.989959716796875Q390.21954345703125 16.65997314453125 353.0495300292969 -6.670013427734375Q315.8795166015625 -30 278.5595703125 -30Q238.919677734375 -30 219.76974487304688 -5.360107421875Q200.61981201171875 19.27978515625 199.29986572265625 47.919677734375Q199.29986572265625 51.27978515625 199.639892578125 54.489959716796875Q199.97991943359375 57.70013427734375 200.3199462890625 61.080322265625Q159.29986572265625 9.6800537109375 125.11981201171875 -18.65997314453125Q90.93975830078125 -47 53.27978515625 -47Z"/>
  <path fill="#8BA8A0" transform="matrix(0.05,0,0,-0.0333,229.7167,68.0)" d="M-58.38018798828125 -280Q-66.38018798828125 -280 -74.87014770507812 -274.139892578125Q-83.360107421875 -268.27978515625 -89.01004028320312 -261.0896911621094Q-94.65997314453125 -253.89959716796875 -95.3199462890625 -250.57965087890625Q-74.06024169921875 -185.74029541015625 -57.92034912109375 -137.3406982421875Q-41.78045654296875 -88.94110107421875 -29.270416259765625 -43.8212890625Q-16.7603759765625 1.29852294921875 -6.070281982421875 53.818603515625Q4.61981201171875 106.33868408203125 15.649932861328125 177.76907348632812Q26.6800537109375 249.199462890625 39.360107421875 352.0401611328125Q41.02008056640625 363.02008056640625 44.02008056640625 368.0100402832031Q47.02008056640625 373 61.65997314453125 373Q90.9598388671875 373 103.93975830078125 357.1800537109375Q116.919677734375 341.360107421875 116.919677734375 322.38018798828125Q116.919677734375 311.02008056640625 112.56961059570312 282.27978515625Q108.21954345703125 253.53948974609375 99.85943603515625 214.4390869140625Q118.17938232421875 244.7991943359375 143.0194091796875 273.5194091796875Q167.85943603515625 302.2396240234375 198.8795166015625 320.9497985839844Q229.89959716796875 339.65997314453125 266.25970458984375 339.65997314453125Q313.5595703125 339.65997314453125 344.3694763183594 307.1700134277344Q375.17938232421875 274.6800537109375 375.17938232421875 221.70013427734375Q375.17938232421875 182.70013427734375 357.67938232421875 139.20013427734375Q340.17938232421875 95.70013427734375 308.3493957519531 57.20013427734375Q276.5194091796875 18.70013427734375 232.199462890625 -5.629852294921875Q187.8795166015625 -29.9598388671875 134.5595703125 -29.9598388671875Q104.5997314453125 -29.9598388671875 86.61981201171875 -22.639892578125Q68.639892578125 -15.3199462890625 68.639892578125 -6.6800537109375Q68.639892578125 -0.70013427734375 76.139892578125 0.4598388671875Q83.639892578125 1.61981201171875 92.97991943359375 1.61981201171875Q137.5997314453125 2.27978515625 175.419677734375 21.449798583984375Q213.2396240234375 40.61981201171875 241.57965087890625 71.62985229492188Q269.919677734375 102.639892578125 285.4297180175781 139.0Q300.93975830078125 175.360107421875 300.93975830078125 210.72021484375Q300.93975830078125 241.4002685546875 287.43975830078125 263.5702819824219Q273.93975830078125 285.74029541015625 244.5997314453125 285.74029541015625Q219.25970458984375 285.74029541015625 193.75970458984375 269.5702819824219Q168.25970458984375 253.4002685546875 146.08969116210938 228.56024169921875Q123.919677734375 203.72021484375 106.74966430664062 176.88018798828125Q89.57965087890625 150.0401611328125 80.57965087890625 129.360107421875Q61.919677734375 60.29986572265625 45.569610595703125 -6.56024169921875Q29.21954345703125 -73.42034912109375 14.369476318359375 -129.59036254882812Q-0.4805908203125 -185.7603759765625 -14.64056396484375 -223.74029541015625Q-28.800537109375 -261.72021484375 -43.080322265625 -273.6800537109375Q-50.06024169921875 -280 -58.38018798828125 -280Z"/>
  <path fill="#8BA8A0" transform="matrix(0.05,0,0,-0.0333,250.0167,68.0)" d="M113.27978515625 -44Q50.29986572265625 -44 17.15997314453125 -9.84002685546875Q-15.97991943359375 24.3199462890625 -15.97991943359375 75.29986572265625Q-15.97991943359375 119.639892578125 6.52008056640625 169.30990600585938Q29.02008056640625 218.97991943359375 66.85006713867188 262.6499328613281Q104.6800537109375 306.3199462890625 150.34002685546875 333.4899597167969Q196 360.65997314453125 241.3199462890625 360.65997314453125Q266.29986572265625 360.65997314453125 288.43975830078125 347.6700134277344Q310.57965087890625 334.6800537109375 310.57965087890625 295.70013427734375Q310.57965087890625 257.70013427734375 288.4096374511719 224.53012084960938Q266.2396240234375 191.360107421875 229.40963745117188 165.360107421875Q192.57965087890625 139.360107421875 148.419677734375 122.860107421875Q104.25970458984375 106.360107421875 59.93975830078125 101.70013427734375Q58.5997314453125 95.65997314453125 57.929718017578125 89.62985229492188Q57.25970458984375 83.5997314453125 57.25970458984375 74.27978515625Q57.25970458984375 65.8795166015625 59.43975830078125 52.529449462890625Q61.61981201171875 39.17938232421875 69.29986572265625 25.689422607421875Q76.97991943359375 12.199462890625 92.80990600585938 3.21954345703125Q108.639892578125 -5.7603759765625 134.93975830078125 -5.7603759765625Q177.27978515625 -5.7603759765625 219.60977172851562 18.07965087890625Q261.93975830078125 41.919677734375 298.9297180175781 81.25970458984375Q335.919677734375 120.5997314453125 360.919677734375 168.5997314453125L378.199462890625 154.97991943359375Q351.199462890625 94.97991943359375 309.03948974609375 50.3199462890625Q266.8795166015625 5.65997314453125 216.39959716796875 -19.170013427734375Q165.919677734375 -44 113.27978515625 -44ZM68.89959716796875 132.57965087890625Q95.2396240234375 137.61981201171875 127.919677734375 153.46987915039062Q160.5997314453125 169.3199462890625 190.77978515625 192.65997314453125Q220.9598388671875 216 240.46987915039062 244.01004028320312Q259.97991943359375 272.02008056640625 259.97991943359375 301.38018798828125Q259.97991943359375 312.38018798828125 255.97991943359375 317.06024169921875Q251.97991943359375 321.74029541015625 241.61981201171875 321.74029541015625Q218.27978515625 321.74029541015625 192.5997314453125 304.56024169921875Q166.919677734375 287.38018798828125 142.57965087890625 259.6900939941406Q118.2396240234375 232 98.89959716796875 198.639892578125Q79.5595703125 165.27978515625 68.89959716796875 132.57965087890625Z"/>
  <path fill="#8BA8A0" transform="matrix(0.05,0,0,-0.0333,266.9167,68.0)" d="M65.5997314453125 -30Q47.27978515625 -30 28.4598388671875 -20.84002685546875Q9.639892578125 -11.6800537109375 -3.1800537109375 7.97991943359375Q-16 27.639892578125 -16 57.9598388671875Q-16 90.9598388671875 0.0 131.9598388671875Q16 172.9598388671875 43.329986572265625 213.78982543945312Q70.65997314453125 254.61981201171875 106.64993286132812 288.7898254394531Q142.639892578125 322.9598388671875 182.61981201171875 343.7898254394531Q222.5997314453125 364.61981201171875 262.89959716796875 364.61981201171875Q285.21954345703125 364.61981201171875 297.7095031738281 357.11981201171875Q310.199462890625 349.61981201171875 310.199462890625 332.9598388671875Q310.199462890625 328.29986572265625 308.7095031738281 322.9899597167969Q307.21954345703125 317.6800537109375 301.5997314453125 313.02008056640625Q297.25970458984375 319.70013427734375 287.4297180175781 322.5401611328125Q277.5997314453125 325.38018798828125 265.57965087890625 325.38018798828125Q232.919677734375 325.38018798828125 202.74966430664062 306.5401611328125Q172.57965087890625 287.70013427734375 147.40963745117188 257.8500671386719Q122.2396240234375 228 103.56961059570312 193.3199462890625Q84.89959716796875 158.639892578125 74.72958374023438 126.4598388671875Q64.5595703125 94.27978515625 64.5595703125 71.27978515625Q64.5595703125 51.25970458984375 73.2396240234375 39.249664306640625Q81.919677734375 27.2396240234375 97.919677734375 27.2396240234375Q124.919677734375 27.2396240234375 162.75970458984375 59.589691162109375Q200.5997314453125 91.93975830078125 240.26974487304688 152.28982543945312Q279.93975830078125 212.639892578125 311.93975830078125 295.639892578125Q333.93975830078125 352.97991943359375 357.7697448730469 412.6499328613281Q381.5997314453125 472.3199462890625 405.5997314453125 527.4899597167969Q429.5997314453125 582.6599731445312 452.75970458984375 625.8299865722656Q475.919677734375 669 497.07965087890625 694.5Q518.2396240234375 720 535.5595703125 720Q545.5394897460938 720 553.1894226074219 712.1800537109375Q560.83935546875 704.360107421875 560.83935546875 692.3801879882812Q560.83935546875 675.72021484375 544.33935546875 637.8801879882812Q527.83935546875 600.0401611328125 501.99932861328125 547.5301208496094Q476.1593017578125 495.02008056640625 446.8293151855469 433.6700134277344Q417.49932861328125 372.3199462890625 391.6593017578125 308.3099060058594Q365.81927490234375 244.29986572265625 349.31927490234375 183.139892578125Q332.81927490234375 121.97991943359375 332.81927490234375 69.34002685546875Q332.81927490234375 43.97991943359375 336.8092346191406 33.609771728515625Q340.7991943359375 23.2396240234375 353.83935546875 23.2396240234375Q375.49932861328125 23.2396240234375 402.83935546875 40.57965087890625Q430.17938232421875 57.919677734375 458.17938232421875 91.24966430664062Q486.17938232421875 124.57965087890625 508.49932861328125 171.2396240234375L525.119140625 157.61981201171875Q504.13922119140625 103.97991943359375 470.479248046875 62.489959716796875Q436.81927490234375 21 398.3293151855469 -2.5Q359.83935546875 -26 323.199462890625 -26Q283.5595703125 -26 268.0696105957031 -0.510040283203125Q252.57965087890625 24.97991943359375 252.57965087890625 56.919677734375Q252.57965087890625 73.25970458984375 255.92971801757812 93.67001342773438Q259.27978515625 114.080322265625 264.3199462890625 136.2008056640625Q232.97991943359375 88.4805908203125 197.96987915039062 50.60040283203125Q162.9598388671875 12.72021484375 129.44979858398438 -8.639892578125Q95.93975830078125 -30 65.5997314453125 -30Z"/>
  <path fill="#8BA8A0" transform="matrix(0.05,0,0,-0.0333,304.1667,68.0)" d="M100.919677734375 -73Q45.61981201171875 -73 17.47991943359375 -38.010040283203125Q-10.65997314453125 -3.02008056640625 -10.65997314453125 57.61981201171875Q-10.65997314453125 106.9598388671875 6.34002685546875 174.29986572265625Q23.34002685546875 241.639892578125 51.34002685546875 315.47991943359375Q79.34002685546875 389.3199462890625 113.84002685546875 459.9899597167969Q148.34002685546875 530.6599731445312 184.0 588.1599731445312Q219.65997314453125 645.6599731445312 251.3199462890625 679.8299865722656Q282.97991943359375 714 304.9598388671875 714Q323.93975830078125 714 333.0896911621094 691.6800537109375Q342.2396240234375 669.360107421875 342.89959716796875 647.0401611328125Q342.89959716796875 619.0401611328125 330.89959716796875 579.0401611328125Q318.89959716796875 539.0401611328125 296.89959716796875 493.8701477050781Q274.89959716796875 448.70013427734375 245.89959716796875 404.70013427734375Q216.89959716796875 360.70013427734375 182.7396240234375 324.5301208496094Q148.57965087890625 288.360107421875 112.25970458984375 267.360107421875Q105.5997314453125 255.0401611328125 94.75970458984375 222.19009399414062Q83.919677734375 189.34002685546875 75.07965087890625 147.14993286132812Q66.2396240234375 104.9598388671875 66.2396240234375 63.61981201171875Q66.2396240234375 23.27978515625 78.07965087890625 -4.5401611328125Q89.919677734375 -32.360107421875 119.25970458984375 -32.360107421875Q146.27978515625 -32.360107421875 176.61981201171875 -8.530120849609375Q206.9598388671875 15.29986572265625 225.9598388671875 50.3199462890625Q188.9598388671875 69.97991943359375 170.29986572265625 106.14993286132812Q151.639892578125 142.3199462890625 151.639892578125 181.29986572265625Q151.639892578125 229.9598388671875 177.62985229492188 259.61981201171875Q203.61981201171875 289.27978515625 240.25970458984375 289.27978515625Q271.2396240234375 289.27978515625 290.8795166015625 265.11981201171875Q310.5194091796875 240.9598388671875 310.5194091796875 192Q310.5194091796875 161.639892578125 302.5093688964844 128.28982543945312Q294.49932861328125 94.93975830078125 278.81927490234375 62.5997314453125Q284.1593017578125 62.25970458984375 288.67938232421875 61.589691162109375Q293.199462890625 60.919677734375 299.53948974609375 60.919677734375Q334.8795166015625 60.919677734375 359.53948974609375 79.40963745117188Q384.199462890625 97.89959716796875 401.0294494628906 123.72958374023438Q417.85943603515625 149.5595703125 428.199462890625 171.2396240234375L442.17938232421875 152.9598388671875Q416.1593017578125 90.5595703125 378.979248046875 62.449798583984375Q341.7991943359375 34.34002685546875 289.93975830078125 34.34002685546875Q283.919677734375 34.34002685546875 277.5696105957031 34.6800537109375Q271.21954345703125 35.02008056640625 265.199462890625 36.02008056640625Q237.53948974609375 -9.3199462890625 196.71954345703125 -41.15997314453125Q155.89959716796875 -73 100.919677734375 -73ZM240.57965087890625 78.89959716796875Q250.25970458984375 99.919677734375 255.26974487304688 122.11981201171875Q260.27978515625 144.3199462890625 260.27978515625 169.34002685546875Q260.27978515625 205 251.43975830078125 223.02008056640625Q242.5997314453125 241.0401611328125 229.919677734375 241.0401611328125Q216.2396240234375 241.0401611328125 206.0595703125 222.19009399414062Q195.8795166015625 203.34002685546875 195.8795166015625 176.29986572265625Q195.8795166015625 153.25970458984375 205.5595703125 124.57965087890625Q215.2396240234375 95.89959716796875 240.57965087890625 78.89959716796875ZM128.53948974609375 322.199462890625Q154.5595703125 344.85943603515625 179.07965087890625 376.5495300292969Q203.5997314453125 408.2396240234375 224.94979858398438 443.43975830078125Q246.29986572265625 478.639892578125 262.6499328613281 512.6700134277344Q279 546.7001342773438 289.0 574.3902282714844Q299 602.080322265625 300.3199462890625 617.7402954101562Q300.3199462890625 620.7603759765625 299.97991943359375 622.2603759765625Q299.639892578125 623.7603759765625 298.9598388671875 624.4203491210938Q290.29986572265625 622.4404296875 269.11981201171875 595.5903625488281Q247.93975830078125 568.7402954101562 221.75970458984375 525.2001342773438Q195.57965087890625 481.65997314453125 170.5595703125 428.77978515625Q145.53948974609375 375.89959716796875 128.53948974609375 322.199462890625Z"/>
  <path fill="#8BA8A0" transform="matrix(0.05,0,0,-0.0333,324.3667,68.0)" d="M46.29986572265625 -280Q21.29986572265625 -280 0.649932861328125 -265.1800537109375Q-20 -250.360107421875 -20 -219.080322265625Q-20 -187.080322265625 -2.02008056640625 -161.75033569335938Q15.9598388671875 -136.42034912109375 44.93975830078125 -115.09036254882812Q73.919677734375 -93.7603759765625 108.58969116210938 -75.75033569335938Q143.25970458984375 -57.74029541015625 177.29986572265625 -41.38018798828125Q189.3199462890625 -9.65997314453125 203.15997314453125 35.1800537109375Q217 80.02008056640625 228.02008056640625 123.800537109375Q196.6800537109375 77.74029541015625 161.17001342773438 43.210174560546875Q125.65997314453125 8.6800537109375 83.34002685546875 8.6800537109375Q65 8.6800537109375 45.510040283203125 16.52008056640625Q26.02008056640625 24.360107421875 13.030120849609375 42.690093994140625Q0.0401611328125 61.02008056640625 0.0401611328125 91Q0.0401611328125 117.6800537109375 9.5401611328125 154.6800537109375Q19.0401611328125 191.6800537109375 33.370147705078125 227.01004028320312Q47.70013427734375 262.34002685546875 63.360107421875 285.6700134277344Q79.02008056640625 309 90.6800537109375 309Q96 309 107.15997314453125 305.0100402832031Q118.3199462890625 301.02008056640625 128.80990600585938 294.20013427734375Q139.29986572265625 287.38018798828125 141.27978515625 279.4002685546875Q132.27978515625 267.06024169921875 121.27978515625 244.05020141601562Q110.27978515625 221.0401611328125 100.10977172851562 192.860107421875Q89.93975830078125 164.6800537109375 83.26974487304688 138.0Q76.5997314453125 111.3199462890625 76.5997314453125 91.97991943359375Q76.5997314453125 75.9598388671875 83.27978515625 64.9598388671875Q89.9598388671875 53.9598388671875 107.97991943359375 53.9598388671875Q128.9598388671875 53.9598388671875 152.4598388671875 72.12985229492188Q175.9598388671875 90.29986572265625 198.79986572265625 118.639892578125Q221.639892578125 146.97991943359375 240.3199462890625 177.34002685546875Q242.65997314453125 185.70013427734375 244.82998657226562 199.51004028320312Q247 213.3199462890625 250.97991943359375 227.9598388671875Q255.29986572265625 243.93975830078125 267.4598388671875 259.4698791503906Q279.61981201171875 275 303.29986572265625 275Q310.27978515625 275 316.5997314453125 274.1700134277344Q322.919677734375 273.34002685546875 331.5595703125 271.34002685546875Q331.5595703125 256 321.39959716796875 212.5Q311.2396240234375 169 294.0696105957031 111.65997314453125Q276.89959716796875 54.3199462890625 254.8795166015625 -4.0401611328125Q298.57965087890625 13.29986572265625 343.9096374511719 53.47991943359375Q389.2396240234375 93.65997314453125 417.2396240234375 165.29986572265625L432.8795166015625 152.65997314453125Q417.8795166015625 103.34002685546875 387.3795166015625 66.85006713867188Q356.8795166015625 30.360107421875 318.8795166015625 4.530120849609375Q280.8795166015625 -21.29986572265625 242.5595703125 -38.29986572265625Q215.89959716796875 -102.9598388671875 184.7396240234375 -158.29986572265625Q153.57965087890625 -213.639892578125 119.08969116210938 -246.8199462890625Q84.5997314453125 -280 46.29986572265625 -280ZM38 -244.70013427734375Q55.639892578125 -244.70013427734375 90.14993286132812 -204.87014770507812Q124.65997314453125 -165.0401611328125 161.360107421875 -78.57965087890625Q126.29986572265625 -96.61981201171875 92.94979858398438 -118.11981201171875Q59.5997314453125 -139.61981201171875 37.93975830078125 -163.9598388671875Q16.27978515625 -188.29986572265625 16.27978515625 -216.02008056640625Q16.27978515625 -225.34002685546875 21.289825439453125 -235.02008056640625Q26.29986572265625 -244.70013427734375 38 -244.70013427734375Z"/>
  <path fill="#8BA8A0" transform="matrix(0.05,0,0,-0.0333,357.1667,68.0)" d="M88.9598388671875 -46Q45.29986572265625 -46 19.65997314453125 -20.34002685546875Q-5.97991943359375 5.3199462890625 -5.97991943359375 56.9598388671875Q-5.97991943359375 98.97991943359375 9.860107421875 161.17001342773438Q25.70013427734375 223.360107421875 50.0401611328125 289.38018798828125Q42.02008056640625 291.38018798828125 32.690093994140625 292.88018798828125Q23.360107421875 294.38018798828125 14.70013427734375 298.0401611328125V324.61981201171875Q27.97991943359375 322.9598388671875 38.649932861328125 321.9598388671875Q49.3199462890625 320.9598388671875 61.34002685546875 319.9598388671875Q82.34002685546875 373.29986572265625 106.67001342773438 423.139892578125Q131 472.97991943359375 155.15997314453125 512.1499328613281Q179.3199462890625 551.3199462890625 201.14993286132812 574.1599731445312Q222.97991943359375 597 239.29986572265625 597Q248.61981201171875 597 256.7697448730469 590.1800537109375Q264.919677734375 583.360107421875 264.919677734375 570.3801879882812Q264.919677734375 551.4002685546875 244.24966430664062 513.8902282714844Q223.57965087890625 476.38018798828125 193.2396240234375 425.6900939941406Q162.89959716796875 375 134.5595703125 316.9598388671875Q142.89959716796875 316.9598388671875 151.40963745117188 316.9598388671875Q159.919677734375 316.9598388671875 167.5997314453125 316.9598388671875Q207.85943603515625 316.9598388671875 243.699462890625 318.2898254394531Q279.53948974609375 319.61981201171875 316.53948974609375 323.61981201171875V295.72021484375Q261.53948974609375 290.38018798828125 216.38955688476562 287.38018798828125Q171.2396240234375 284.38018798828125 131.9598388671875 283.72021484375Q128.61981201171875 283.72021484375 125.44979858398438 283.72021484375Q122.27978515625 283.72021484375 118.93975830078125 283.72021484375Q97.25970458984375 233.360107421875 81.58969116210938 180.32998657226562Q65.919677734375 127.29986572265625 65.919677734375 76.93975830078125Q65.919677734375 35.25970458984375 78.919677734375 17.749664306640625Q91.919677734375 0.2396240234375 120.5997314453125 0.2396240234375Q171.27978515625 0.2396240234375 222.92971801757812 45.909637451171875Q274.57965087890625 91.57965087890625 313.2396240234375 169.919677734375L326.89959716796875 159.919677734375Q301.57965087890625 101.93975830078125 263.75970458984375 54.9598388671875Q225.93975830078125 7.97991943359375 181.27978515625 -19.010040283203125Q136.61981201171875 -46 88.9598388671875 -46Z"/>
  <path fill="#8BA8A0" transform="matrix(0.05,0,0,-0.0333,371.5167,68.0)" d="M46.34002685546875 -38Q25.360107421875 -38 15.350067138671875 -4.6800537109375Q5.34002685546875 28.639892578125 5.34002685546875 71.93975830078125Q5.34002685546875 118.61981201171875 21.010040283203125 183.9598388671875Q36.6800537109375 249.29986572265625 63.010040283203125 321.639892578125Q89.34002685546875 393.97991943359375 121.84002685546875 463.3199462890625Q154.34002685546875 532.6599731445312 188.67001342773438 589.3299865722656Q223 646 253.98995971679688 680.0Q284.97991943359375 714 308.29986572265625 714Q328.27978515625 714 338.0896911621094 691.5100402832031Q347.89959716796875 669.0200805664062 347.89959716796875 645.72021484375Q347.89959716796875 618.3801879882812 335.39959716796875 578.7101745605469Q322.89959716796875 539.0401611328125 300.89959716796875 493.8701477050781Q278.89959716796875 448.70013427734375 249.56961059570312 405.0301208496094Q220.2396240234375 361.360107421875 185.90963745117188 325.1900939941406Q151.57965087890625 289.02008056640625 115.25970458984375 267.360107421875Q102.5997314453125 235.06024169921875 94.75970458984375 203.35006713867188Q86.919677734375 171.639892578125 83.57965087890625 142.74966430664062Q80.2396240234375 113.85943603515625 80.2396240234375 88.17938232421875Q80.2396240234375 81.13922119140625 80.7396240234375 74.78915405273438Q81.2396240234375 68.4390869140625 81.57965087890625 62.759033203125Q88.97991943359375 80.65997314453125 100.53012084960938 110.25033569335938Q112.080322265625 139.8406982421875 128.77041625976562 173.00067138671875Q145.46051025390625 206.16064453125 167.95046997070312 235.9404296875Q190.4404296875 265.72021484375 219.06024169921875 284.5Q247.6800537109375 303.27978515625 283.25970458984375 303.27978515625Q315.21954345703125 303.27978515625 333.3694763183594 288.4598388671875Q351.5194091796875 273.639892578125 359.3493957519531 251.8199462890625Q367.17938232421875 230 367.17938232421875 207.34002685546875Q367.17938232421875 175.6800537109375 356.67938232421875 147.34002685546875Q346.17938232421875 119 335.5093688964844 93.64993286132812Q324.83935546875 68.29986572265625 324.83935546875 45.27978515625Q324.83935546875 26.5997314453125 333.0093688964844 18.919677734375Q341.17938232421875 11.2396240234375 352.85943603515625 11.2396240234375Q375.199462890625 11.2396240234375 404.35943603515625 33.2396240234375Q433.5194091796875 55.2396240234375 462.5093688964844 91.7396240234375Q491.49932861328125 128.2396240234375 512.1593017578125 171.89959716796875L527.1392211914062 156.5997314453125Q504.81927490234375 106.93975830078125 474.1593017578125 65.78982543945312Q443.49932861328125 24.639892578125 406.83935546875 0.3199462890625Q370.17938232421875 -24 328.53948974609375 -24Q291.89959716796875 -24 272.7496643066406 -4.6800537109375Q253.5997314453125 14.639892578125 253.5997314453125 43.61981201171875Q253.5997314453125 64.61981201171875 261.2697448730469 90.28982543945312Q268.93975830078125 115.9598388671875 276.1097717285156 142.29986572265625Q283.27978515625 168.639892578125 283.27978515625 190.65997314453125Q283.27978515625 215.34002685546875 272.6097717285156 225.02008056640625Q261.93975830078125 234.70013427734375 246.5997314453125 234.70013427734375Q221.5997314453125 234.70013427734375 201.5997314453125 215.03012084960938Q181.5997314453125 195.360107421875 165.42971801757812 164.19009399414062Q149.25970458984375 133.02008056640625 135.08969116210938 98.35006713867188Q120.919677734375 63.6800537109375 107.25970458984375 32.510040283203125Q93.5997314453125 1.34002685546875 78.94979858398438 -18.329986572265625Q64.29986572265625 -38 46.34002685546875 -38ZM133.53948974609375 322.85943603515625Q160.21954345703125 345.5194091796875 185.06961059570312 378.199462890625Q209.919677734375 410.8795166015625 231.26974487304688 446.7396240234375Q252.61981201171875 482.5997314453125 268.9698791503906 516.6298522949219Q285.3199462890625 550.6599731445312 294.65997314453125 578.0200805664062Q304 605.3801879882812 304.65997314453125 619.72021484375Q304.65997314453125 622.080322265625 304.3199462890625 622.9203491210938Q303.97991943359375 623.7603759765625 303.29986572265625 624.4203491210938Q296.9598388671875 624.4203491210938 276.77978515625 598.9002685546875Q256.5997314453125 573.3801879882812 230.24966430664062 530.3500671386719Q203.89959716796875 487.3199462890625 177.88955688476562 433.27978515625Q151.8795166015625 379.2396240234375 133.53948974609375 322.85943603515625Z"/>
  <path fill="#8BA8A0" transform="matrix(0.05,0,0,-0.0333,395.9167,68.0)" d="M113.27978515625 -44Q50.29986572265625 -44 17.15997314453125 -9.84002685546875Q-15.97991943359375 24.3199462890625 -15.97991943359375 75.29986572265625Q-15.97991943359375 119.639892578125 6.52008056640625 169.30990600585938Q29.02008056640625 218.97991943359375 66.85006713867188 262.6499328613281Q104.6800537109375 306.3199462890625 150.34002685546875 333.4899597167969Q196 360.65997314453125 241.3199462890625 360.65997314453125Q266.29986572265625 360.65997314453125 288.43975830078125 347.6700134277344Q310.57965087890625 334.6800537109375 310.57965087890625 295.70013427734375Q310.57965087890625 257.70013427734375 288.4096374511719 224.53012084960938Q266.2396240234375 191.360107421875 229.40963745117188 165.360107421875Q192.57965087890625 139.360107421875 148.419677734375 122.860107421875Q104.25970458984375 106.360107421875 59.93975830078125 101.70013427734375Q58.5997314453125 95.65997314453125 57.929718017578125 89.62985229492188Q57.25970458984375 83.5997314453125 57.25970458984375 74.27978515625Q57.25970458984375 65.8795166015625 59.43975830078125 52.529449462890625Q61.61981201171875 39.17938232421875 69.29986572265625 25.689422607421875Q76.97991943359375 12.199462890625 92.80990600585938 3.21954345703125Q108.639892578125 -5.7603759765625 134.93975830078125 -5.7603759765625Q177.27978515625 -5.7603759765625 219.60977172851562 18.07965087890625Q261.93975830078125 41.919677734375 298.9297180175781 81.25970458984375Q335.919677734375 120.5997314453125 360.919677734375 168.5997314453125L378.199462890625 154.97991943359375Q351.199462890625 94.97991943359375 309.03948974609375 50.3199462890625Q266.8795166015625 5.65997314453125 216.39959716796875 -19.170013427734375Q165.919677734375 -44 113.27978515625 -44ZM68.89959716796875 132.57965087890625Q95.2396240234375 137.61981201171875 127.919677734375 153.46987915039062Q160.5997314453125 169.3199462890625 190.77978515625 192.65997314453125Q220.9598388671875 216 240.46987915039062 244.01004028320312Q259.97991943359375 272.02008056640625 259.97991943359375 301.38018798828125Q259.97991943359375 312.38018798828125 255.97991943359375 317.06024169921875Q251.97991943359375 321.74029541015625 241.61981201171875 321.74029541015625Q218.27978515625 321.74029541015625 192.5997314453125 304.56024169921875Q166.919677734375 287.38018798828125 142.57965087890625 259.6900939941406Q118.2396240234375 232 98.89959716796875 198.639892578125Q79.5595703125 165.27978515625 68.89959716796875 132.57965087890625Z"/>
  <path fill="#8BA8A0" transform="matrix(0.05,0,0,-0.0333,425.8167,68.0)" d="M112.919677734375 -51Q63.93975830078125 -51 34.4598388671875 -30.5Q4.97991943359375 -10 -7.510040283203125 20.989959716796875Q-20 51.97991943359375 -20 83.9598388671875Q-20 113.29986572265625 -12.0 129.29986572265625Q-4 145.29986572265625 7.829986572265625 152.96987915039062Q19.65997314453125 160.639892578125 30.15997314453125 164.639892578125Q40.65997314453125 168.639892578125 45.3199462890625 173.29986572265625Q72.02008056640625 201.6800537109375 98.01004028320312 236.69009399414062Q124 271.70013427734375 143 313.02008056640625V323.70013427734375Q143 362.6800537109375 156.15997314453125 378.84002685546875Q169.3199462890625 395 185.9598388671875 395Q196.5997314453125 395 201.58969116210938 389.6800537109375Q206.57965087890625 384.360107421875 207.2396240234375 377.38018798828125Q207.2396240234375 371.72021484375 204.56961059570312 362.70013427734375Q201.89959716796875 353.6800537109375 201.89959716796875 338.65997314453125Q201.89959716796875 307.639892578125 215.88955688476562 269.139892578125Q229.8795166015625 230.639892578125 243.86947631835938 187.80990600585938Q257.85943603515625 144.97991943359375 257.85943603515625 99.639892578125Q257.85943603515625 87.29986572265625 256.6894226074219 76.44979858398438Q255.5194091796875 65.5997314453125 253.17938232421875 55.919677734375Q285.53948974609375 63.2396240234375 315.8795166015625 89.39959716796875Q346.21954345703125 115.5595703125 373.89959716796875 168.919677734375L384.8795166015625 159.57965087890625Q365.8795166015625 103.25970458984375 329.199462890625 70.79986572265625Q292.5194091796875 38.34002685546875 245.53948974609375 30.6800537109375Q229.53948974609375 -11 193.71954345703125 -31.0Q157.89959716796875 -51 112.919677734375 -51ZM108.97991943359375 -10.06024169921875Q126.25970458984375 -10.06024169921875 144.27978515625 -0.74029541015625Q162.29986572265625 8.57965087890625 172.639892578125 32.34002685546875Q131.29986572265625 41 98.46987915039062 64.6800537109375Q65.639892578125 88.360107421875 48.3199462890625 112.70013427734375Q31.5997314453125 110.38018798828125 31.5997314453125 82.97991943359375Q31.5997314453125 48.9598388671875 51.449798583984375 19.449798583984375Q71.29986572265625 -10.06024169921875 108.97991943359375 -10.06024169921875ZM179.61981201171875 57.57965087890625Q181.61981201171875 65.5997314453125 182.28982543945312 75.60977172851562Q182.9598388671875 85.61981201171875 182.9598388671875 94.02008056640625Q182.29986572265625 139.70013427734375 171.12985229492188 184.55020141601562Q159.9598388671875 229.4002685546875 149.97991943359375 273.70013427734375Q130.27978515625 240.3199462890625 105.76974487304688 204.82998657226562Q81.25970458984375 169.34002685546875 59.57965087890625 147Q75.2396240234375 118.29986572265625 106.40963745117188 92.93975830078125Q137.57965087890625 67.57965087890625 179.61981201171875 57.57965087890625Z"/>
  <path fill="#8BA8A0" transform="matrix(0.05,0,0,-0.0333,443.2667,68.0)" d="M46.34002685546875 -38Q25.360107421875 -38 15.350067138671875 -4.6800537109375Q5.34002685546875 28.639892578125 5.34002685546875 71.93975830078125Q5.34002685546875 118.61981201171875 21.010040283203125 183.9598388671875Q36.6800537109375 249.29986572265625 63.010040283203125 321.639892578125Q89.34002685546875 393.97991943359375 121.84002685546875 463.3199462890625Q154.34002685546875 532.6599731445312 188.67001342773438 589.3299865722656Q223 646 253.98995971679688 680.0Q284.97991943359375 714 308.29986572265625 714Q328.27978515625 714 338.0896911621094 691.5100402832031Q347.89959716796875 669.0200805664062 347.89959716796875 645.72021484375Q347.89959716796875 618.3801879882812 335.39959716796875 578.7101745605469Q322.89959716796875 539.0401611328125 300.89959716796875 493.8701477050781Q278.89959716796875 448.70013427734375 249.56961059570312 405.0301208496094Q220.2396240234375 361.360107421875 185.90963745117188 325.1900939941406Q151.57965087890625 289.02008056640625 115.25970458984375 267.360107421875Q102.5997314453125 235.06024169921875 94.75970458984375 203.35006713867188Q86.919677734375 171.639892578125 83.57965087890625 142.74966430664062Q80.2396240234375 113.85943603515625 80.2396240234375 88.17938232421875Q80.2396240234375 81.13922119140625 80.7396240234375 74.78915405273438Q81.2396240234375 68.4390869140625 81.57965087890625 62.759033203125Q88.97991943359375 80.65997314453125 100.53012084960938 110.25033569335938Q112.080322265625 139.8406982421875 128.77041625976562 173.00067138671875Q145.46051025390625 206.16064453125 167.95046997070312 235.9404296875Q190.4404296875 265.72021484375 219.06024169921875 284.5Q247.6800537109375 303.27978515625 283.25970458984375 303.27978515625Q315.21954345703125 303.27978515625 333.3694763183594 288.4598388671875Q351.5194091796875 273.639892578125 359.3493957519531 251.8199462890625Q367.17938232421875 230 367.17938232421875 207.34002685546875Q367.17938232421875 175.6800537109375 356.67938232421875 147.34002685546875Q346.17938232421875 119 335.5093688964844 93.64993286132812Q324.83935546875 68.29986572265625 324.83935546875 45.27978515625Q324.83935546875 26.5997314453125 333.0093688964844 18.919677734375Q341.17938232421875 11.2396240234375 352.85943603515625 11.2396240234375Q375.199462890625 11.2396240234375 404.35943603515625 33.2396240234375Q433.5194091796875 55.2396240234375 462.5093688964844 91.7396240234375Q491.49932861328125 128.2396240234375 512.1593017578125 171.89959716796875L527.1392211914062 156.5997314453125Q504.81927490234375 106.93975830078125 474.1593017578125 65.78982543945312Q443.49932861328125 24.639892578125 406.83935546875 0.3199462890625Q370.17938232421875 -24 328.53948974609375 -24Q291.89959716796875 -24 272.7496643066406 -4.6800537109375Q253.5997314453125 14.639892578125 253.5997314453125 43.61981201171875Q253.5997314453125 64.61981201171875 261.2697448730469 90.28982543945312Q268.93975830078125 115.9598388671875 276.1097717285156 142.29986572265625Q283.27978515625 168.639892578125 283.27978515625 190.65997314453125Q283.27978515625 215.34002685546875 272.6097717285156 225.02008056640625Q261.93975830078125 234.70013427734375 246.5997314453125 234.70013427734375Q221.5997314453125 234.70013427734375 201.5997314453125 215.03012084960938Q181.5997314453125 195.360107421875 165.42971801757812 164.19009399414062Q149.25970458984375 133.02008056640625 135.08969116210938 98.35006713867188Q120.919677734375 63.6800537109375 107.25970458984375 32.510040283203125Q93.5997314453125 1.34002685546875 78.94979858398438 -18.329986572265625Q64.29986572265625 -38 46.34002685546875 -38ZM133.53948974609375 322.85943603515625Q160.21954345703125 345.5194091796875 185.06961059570312 378.199462890625Q209.919677734375 410.8795166015625 231.26974487304688 446.7396240234375Q252.61981201171875 482.5997314453125 268.9698791503906 516.6298522949219Q285.3199462890625 550.6599731445312 294.65997314453125 578.0200805664062Q304 605.3801879882812 304.65997314453125 619.72021484375Q304.65997314453125 622.080322265625 304.3199462890625 622.9203491210938Q303.97991943359375 623.7603759765625 303.29986572265625 624.4203491210938Q296.9598388671875 624.4203491210938 276.77978515625 598.9002685546875Q256.5997314453125 573.3801879882812 230.24966430664062 530.3500671386719Q203.89959716796875 487.3199462890625 177.88955688476562 433.27978515625Q151.8795166015625 379.2396240234375 133.53948974609375 322.85943603515625Z"/>
  <path fill="#8BA8A0" transform="matrix(0.05,0,0,-0.0333,467.6667,68.0)" d="M67.02008056640625 -32Q22.70013427734375 -32 5.690093994140625 -3.52008056640625Q-11.3199462890625 24.9598388671875 -11.3199462890625 60.97991943359375Q-11.3199462890625 92.639892578125 -1.3199462890625 125.96987915039062Q8.6800537109375 159.29986572265625 25.84002685546875 188.29986572265625Q43 217.29986572265625 64.15997314453125 234.96987915039062Q85.3199462890625 252.639892578125 106.97991943359375 252.639892578125Q113.29986572265625 252.639892578125 121.43975830078125 250.47991943359375Q129.57965087890625 248.3199462890625 133.919677734375 244.34002685546875Q122.93975830078125 231.72021484375 110.43975830078125 209.89022827148438Q97.93975830078125 188.06024169921875 87.26974487304688 162.5401611328125Q76.5997314453125 137.02008056640625 70.08969116210938 111.34002685546875Q63.57965087890625 85.65997314453125 63.57965087890625 65.34002685546875Q63.57965087890625 41.93975830078125 71.92971801757812 28.769744873046875Q80.27978515625 15.5997314453125 98.25970458984375 15.5997314453125Q117.93975830078125 15.5997314453125 145.28982543945312 37.43975830078125Q172.639892578125 59.27978515625 198 89.65997314453125Q167.360107421875 116.61981201171875 152.85006713867188 152.139892578125Q138.34002685546875 187.65997314453125 138.34002685546875 233.25970458984375Q138.34002685546875 258.34002685546875 149.1800537109375 286.02008056640625Q160.02008056640625 313.70013427734375 183.01004028320312 332.8500671386719Q206 352 242.93975830078125 352Q285.25970458984375 352 301.5696105957031 328.6800537109375Q317.8795166015625 305.360107421875 317.8795166015625 272.360107421875Q317.8795166015625 234.6800537109375 298.5495300292969 188.17001342773438Q279.21954345703125 141.65997314453125 251.53948974609375 99.639892578125Q265.57965087890625 92.27978515625 282.93975830078125 92.27978515625Q298.27978515625 92.27978515625 318.93975830078125 99.10977172851562Q339.5997314453125 105.93975830078125 359.4297180175781 122.26974487304688Q379.25970458984375 138.5997314453125 391.25970458984375 166.25970458984375L407.21954345703125 154.27978515625Q385.89959716796875 104.639892578125 349.39959716796875 82.5Q312.89959716796875 60.360107421875 278.57965087890625 60.360107421875Q265.57965087890625 60.360107421875 252.919677734375 62.860107421875Q240.25970458984375 65.360107421875 229.25970458984375 69.70013427734375Q195.25970458984375 28 152.44979858398438 -2.0Q109.639892578125 -32 67.02008056640625 -32ZM221.27978515625 119.61981201171875Q245.61981201171875 155.29986572265625 262.4497985839844 195.46987915039062Q279.27978515625 235.639892578125 279.27978515625 270.3199462890625Q279.27978515625 295.360107421875 271.7697448730469 306.88018798828125Q264.25970458984375 318.4002685546875 250.5997314453125 318.4002685546875Q231.25970458984375 318.4002685546875 210.919677734375 290.72021484375Q190.57965087890625 263.0401611328125 190.57965087890625 221.02008056640625Q190.57965087890625 197.29986572265625 198.419677734375 167.46987915039062Q206.25970458984375 137.639892578125 221.27978515625 119.61981201171875Z"/>
  <path fill="#8BA8A0" transform="matrix(0.05,0,0,-0.0333,486.1667,68.0)" d="M180.919677734375 -26Q144.93975830078125 -26 123.12985229492188 -7.010040283203125Q101.3199462890625 11.97991943359375 101.3199462890625 43.61981201171875Q101.3199462890625 72.29986572265625 115.3199462890625 104.639892578125Q129.3199462890625 136.97991943359375 143.47991943359375 168.48995971679688Q157.639892578125 200 157.639892578125 224.6800537109375Q157.639892578125 250.74029541015625 141.44979858398438 266.24029541015625Q125.25970458984375 281.74029541015625 105.5997314453125 292.7603759765625Q83.25970458984375 236.4002685546875 56.609771728515625 184.39022827148438Q29.9598388671875 132.38018798828125 13.29986572265625 104.06024169921875L0.34002685546875 128.97991943359375Q14.34002685546875 154.97991943359375 37.170013427734375 203.65997314453125Q60 252.34002685546875 81.34002685546875 313.0401611328125Q71.34002685546875 323.0401611328125 71.34002685546875 339.02008056640625Q71.34002685546875 366.38018798828125 87.6800537109375 388.02008056640625Q104.02008056640625 409.65997314453125 116.639892578125 409.65997314453125Q128.29986572265625 409.65997314453125 132.43975830078125 397.52008056640625Q136.57965087890625 385.38018798828125 136.57965087890625 380.38018798828125Q136.57965087890625 375.38018798828125 131.7396240234375 361.8701477050781Q126.89959716796875 348.360107421875 125.57965087890625 343.38018798828125Q126.2396240234375 331.360107421875 142.39959716796875 320.52008056640625Q158.5595703125 309.6800537109375 179.21954345703125 295.5100402832031Q199.8795166015625 281.34002685546875 215.70950317382812 260.5100402832031Q231.53948974609375 239.6800537109375 231.53948974609375 207.6800537109375Q231.53948974609375 178.34002685546875 218.70950317382812 148.0Q205.8795166015625 117.65997314453125 193.04953002929688 90.97991943359375Q180.21954345703125 64.29986572265625 180.21954345703125 44.61981201171875Q180.21954345703125 29.25970458984375 188.22958374023438 24.249664306640625Q196.2396240234375 19.2396240234375 206.919677734375 19.2396240234375Q230.919677734375 19.2396240234375 256.7496643066406 33.909637451171875Q282.57965087890625 48.57965087890625 307.2396240234375 71.57965087890625Q331.89959716796875 94.57965087890625 350.89959716796875 120.07965087890625Q369.89959716796875 145.57965087890625 379.5595703125 166.919677734375L399.81927490234375 151.639892578125Q380.81927490234375 108.97991943359375 345.83935546875 67.8199462890625Q310.85943603515625 26.65997314453125 268.0495300292969 0.329986572265625Q225.2396240234375 -26 180.919677734375 -26Z"/>
  <path fill="#8BA8A0" transform="matrix(0.05,0,0,-0.0333,504.0667,68.0)" d="M113.27978515625 -44Q50.29986572265625 -44 17.15997314453125 -9.84002685546875Q-15.97991943359375 24.3199462890625 -15.97991943359375 75.29986572265625Q-15.97991943359375 119.639892578125 6.52008056640625 169.30990600585938Q29.02008056640625 218.97991943359375 66.85006713867188 262.6499328613281Q104.6800537109375 306.3199462890625 150.34002685546875 333.4899597167969Q196 360.65997314453125 241.3199462890625 360.65997314453125Q266.29986572265625 360.65997314453125 288.43975830078125 347.6700134277344Q310.57965087890625 334.6800537109375 310.57965087890625 295.70013427734375Q310.57965087890625 257.70013427734375 288.4096374511719 224.53012084960938Q266.2396240234375 191.360107421875 229.40963745117188 165.360107421875Q192.57965087890625 139.360107421875 148.419677734375 122.860107421875Q104.25970458984375 106.360107421875 59.93975830078125 101.70013427734375Q58.5997314453125 95.65997314453125 57.929718017578125 89.62985229492188Q57.25970458984375 83.5997314453125 57.25970458984375 74.27978515625Q57.25970458984375 65.8795166015625 59.43975830078125 52.529449462890625Q61.61981201171875 39.17938232421875 69.29986572265625 25.689422607421875Q76.97991943359375 12.199462890625 92.80990600585938 3.21954345703125Q108.639892578125 -5.7603759765625 134.93975830078125 -5.7603759765625Q177.27978515625 -5.7603759765625 219.60977172851562 18.07965087890625Q261.93975830078125 41.919677734375 298.9297180175781 81.25970458984375Q335.919677734375 120.5997314453125 360.919677734375 168.5997314453125L378.199462890625 154.97991943359375Q351.199462890625 94.97991943359375 309.03948974609375 50.3199462890625Q266.8795166015625 5.65997314453125 216.39959716796875 -19.170013427734375Q165.919677734375 -44 113.27978515625 -44ZM68.89959716796875 132.57965087890625Q95.2396240234375 137.61981201171875 127.919677734375 153.46987915039062Q160.5997314453125 169.3199462890625 190.77978515625 192.65997314453125Q220.9598388671875 216 240.46987915039062 244.01004028320312Q259.97991943359375 272.02008056640625 259.97991943359375 301.38018798828125Q259.97991943359375 312.38018798828125 255.97991943359375 317.06024169921875Q251.97991943359375 321.74029541015625 241.61981201171875 321.74029541015625Q218.27978515625 321.74029541015625 192.5997314453125 304.56024169921875Q166.919677734375 287.38018798828125 142.57965087890625 259.6900939941406Q118.2396240234375 232 98.89959716796875 198.639892578125Q79.5595703125 165.27978515625 68.89959716796875 132.57965087890625Z"/>
  <path fill="#8BA8A0" transform="matrix(0.05,0,0,-0.0333,520.9667,68.0)" d="M84.97991943359375 -30Q39.34002685546875 -30 20.84002685546875 0.8199462890625Q2.34002685546875 31.639892578125 2.34002685546875 74.97991943359375Q2.34002685546875 123.639892578125 20.34002685546875 189.639892578125Q38.34002685546875 255.639892578125 67.84002685546875 328.3099060058594Q97.34002685546875 400.97991943359375 132.67001342773438 470.47991943359375Q168 539.9799194335938 203.65997314453125 596.3199462890625Q239.3199462890625 652.6599731445312 269.47991943359375 686.3299865722656Q299.639892578125 720 317.9598388671875 720Q330.27978515625 720 338.5997314453125 706.8400268554688Q346.919677734375 693.6800537109375 351.9096374511719 675.5200805664062Q356.89959716796875 657.360107421875 356.89959716796875 642.0401611328125Q356.89959716796875 615.0401611328125 343.39959716796875 571.5401611328125Q329.89959716796875 528.0401611328125 305.39959716796875 475.5301208496094Q280.89959716796875 423.02008056640625 247.39959716796875 368.52008056640625Q213.89959716796875 314.02008056640625 173.7396240234375 264.6800537109375Q133.57965087890625 215.34002685546875 88.25970458984375 179.34002685546875Q83.57965087890625 153.65997314453125 80.07965087890625 128.8199462890625Q76.57965087890625 103.97991943359375 76.57965087890625 82.9598388671875Q76.57965087890625 45.93975830078125 88.2396240234375 28.589691162109375Q99.89959716796875 11.2396240234375 119.919677734375 11.2396240234375Q145.5997314453125 11.2396240234375 172.0997314453125 34.909637451171875Q198.5997314453125 58.57965087890625 222.75970458984375 95.07965087890625Q246.919677734375 131.57965087890625 264.57965087890625 170.57965087890625L285.5194091796875 159.27978515625Q243.53948974609375 71.639892578125 192.57965087890625 20.8199462890625Q141.61981201171875 -30 84.97991943359375 -30ZM103.199462890625 231.81927490234375Q137.53948974609375 268.13922119140625 168.88955688476562 312.31927490234375Q200.2396240234375 356.49932861328125 226.75970458984375 402.85943603515625Q253.27978515625 449.21954345703125 273.29986572265625 492.57965087890625Q293.3199462890625 535.9397583007812 304.3299865722656 570.4598388671875Q315.34002685546875 604.9799194335938 316 624.9799194335938Q316 629.0401611328125 315.1499328613281 630.3902282714844Q314.29986572265625 631.7402954101562 313.61981201171875 632.4002685546875Q305.61981201171875 632.4002685546875 287.43975830078125 608.8801879882812Q269.25970458984375 585.360107421875 244.57965087890625 545.0Q219.89959716796875 504.639892578125 193.88955688476562 452.93975830078125Q167.8795166015625 401.2396240234375 144.03948974609375 344.2095031738281Q120.199462890625 287.17938232421875 103.199462890625 231.81927490234375Z"/>
  <path fill="#8BA8A0" transform="matrix(0.05,0,0,-0.0333,533.0667,68.0)" d="M77.27978515625 -28.639892578125Q34.97991943359375 -28.639892578125 14.0 -3.17743174235026Q-6.97991943359375 22.28502909342448 -6.97991943359375 58.65997314453125Q-6.97991943359375 81.65997314453125 1.190093994140625 116.65997314453125Q9.360107421875 151.65997314453125 23.705513927424064 190.15997314453125Q38.05092043297313 228.65997314453125 57.00735045816297 262.65997314453125Q75.9637804833528 296.65997314453125 97.48189024167641 318.15997314453125Q119 339.65997314453125 140.3199462890625 339.65997314453125Q151.4798583984375 339.65997314453125 159.539794921875 333.00502014160156Q167.5997314453125 326.3500671386719 167.5997314453125 313.0401611328125Q167.5997314453125 300.38018798828125 152.23986272942528 273.9550033077117Q136.8799940135381 247.52981862714213 116.06984930169092 213.2749495967742Q95.25970458984375 179.02008056640625 79.75970458984375 141.88127517700195Q64.25970458984375 104.74246978759766 64.25970458984375 70.97991943359375Q64.25970458984375 37.751806640625 75.92971801757812 26.67576904296875Q87.5997314453125 15.5997314453125 110.61981201171875 15.5997314453125Q144.61981201171875 15.5997314453125 184.10977172851562 49.5997314453125Q223.5997314453125 83.5997314453125 266.5997314453125 168.5997314453125L279.5595703125 154.639892578125Q246.5997314453125 67.3199462890625 192.42971801757812 19.34002685546875Q138.25970458984375 -28.639892578125 77.27978515625 -28.639892578125ZM195.9598388671875 424.74029541015625Q177.97991943359375 424.74029541015625 163.5 433.6202596028646Q149.02008056640625 442.50022379557294 149.02008056640625 461.3701477050781Q149.02008056640625 484.6800537109375 174.51004028320312 501.1700134277344Q200 517.6599731445312 226.84296123798077 517.6599731445312Q243.61981201171875 517.6599731445312 254.92971801757812 510.0Q266.2396240234375 502.34002685546875 266.2396240234375 482.70013427734375Q266.2396240234375 462.3068576388889 244.0744610126202 443.5235765245226Q221.90929800180288 424.74029541015625 195.9598388671875 424.74029541015625Z"/>
  <path fill="#8BA8A0" transform="matrix(0.05,0,0,-0.0333,545.2167,68.0)" d="M332.2396240234375 -20Q294.5997314453125 -20 275.11981201171875 -1.010040283203125Q255.639892578125 17.97991943359375 255.639892578125 47.29986572265625Q255.639892578125 67.639892578125 262.8099060058594 90.30990600585938Q269.97991943359375 112.97991943359375 276.97991943359375 136.48995971679688Q283.97991943359375 160 283.97991943359375 181.6800537109375Q283.97991943359375 205.72021484375 273.139892578125 214.9002685546875Q262.29986572265625 224.080322265625 247.27978515625 224.080322265625Q216.93975830078125 224.080322265625 185.26974487304688 199.24029541015625Q153.5997314453125 174.4002685546875 123.92971801757812 136.55020141601562Q94.25970458984375 98.70013427734375 68.25970458984375 58.02008056640625Q42.25970458984375 17.34002685546875 22.919677734375 -15Q4.93975830078125 -15 -11.210174560546875 -8.84002685546875Q-27.360107421875 -2.6800537109375 -38 11.61981201171875Q-37.34002685546875 16.61981201171875 -26.84002685546875 42.289825439453125Q-16.34002685546875 67.9598388671875 -3.0 104.30990600585938Q10.34002685546875 140.65997314453125 20.6800537109375 180.0Q31.02008056640625 219.34002685546875 31.02008056640625 251.6800537109375Q37.6800537109375 259.34002685546875 51.670013427734375 267.0Q65.65997314453125 274.65997314453125 80.97991943359375 274.65997314453125Q113.25970458984375 274.65997314453125 113.25970458984375 246.02008056640625Q113.25970458984375 232.65997314453125 107.22958374023438 204.39959716796875Q101.199462890625 176.13922119140625 91.1593017578125 142.39892578125Q117.49932861328125 179.4390869140625 149.34939575195312 213.66934204101562Q181.199462890625 247.89959716796875 216.22958374023438 269.9497985839844Q251.25970458984375 292 286.61981201171875 292Q328.25970458984375 292 347.7396240234375 263.34002685546875Q367.21954345703125 234.6800537109375 367.21954345703125 200.02008056640625Q367.21954345703125 169.6800537109375 357.21954345703125 143.51004028320312Q347.21954345703125 117.34002685546875 337.3795166015625 93.82998657226562Q327.53948974609375 70.3199462890625 327.53948974609375 47.29986572265625Q327.53948974609375 29.5997314453125 335.3795166015625 22.419677734375Q343.21954345703125 15.2396240234375 353.57965087890625 15.2396240234375Q377.919677734375 15.2396240234375 403.57965087890625 38.409637451171875Q429.2396240234375 61.57965087890625 452.7396240234375 97.24966430664062Q476.2396240234375 132.919677734375 494.2396240234375 169.25970458984375L509.199462890625 155.5997314453125Q488.199462890625 106.5997314453125 461.8694763183594 66.94979858398438Q435.53948974609375 27.29986572265625 403.5495300292969 3.649932861328125Q371.5595703125 -20 332.2396240234375 -20Z"/>
  <path fill="#8BA8A0" transform="matrix(0.05,0,0,-0.0333,568.7667,68.0)" d="M113.27978515625 -44Q50.29986572265625 -44 17.15997314453125 -9.84002685546875Q-15.97991943359375 24.3199462890625 -15.97991943359375 75.29986572265625Q-15.97991943359375 119.639892578125 6.52008056640625 169.30990600585938Q29.02008056640625 218.97991943359375 66.85006713867188 262.6499328613281Q104.6800537109375 306.3199462890625 150.34002685546875 333.4899597167969Q196 360.65997314453125 241.3199462890625 360.65997314453125Q266.29986572265625 360.65997314453125 288.43975830078125 347.6700134277344Q310.57965087890625 334.6800537109375 310.57965087890625 295.70013427734375Q310.57965087890625 257.70013427734375 288.4096374511719 224.53012084960938Q266.2396240234375 191.360107421875 229.40963745117188 165.360107421875Q192.57965087890625 139.360107421875 148.419677734375 122.860107421875Q104.25970458984375 106.360107421875 59.93975830078125 101.70013427734375Q58.5997314453125 95.65997314453125 57.929718017578125 89.62985229492188Q57.25970458984375 83.5997314453125 57.25970458984375 74.27978515625Q57.25970458984375 65.8795166015625 59.43975830078125 52.529449462890625Q61.61981201171875 39.17938232421875 69.29986572265625 25.689422607421875Q76.97991943359375 12.199462890625 92.80990600585938 3.21954345703125Q108.639892578125 -5.7603759765625 134.93975830078125 -5.7603759765625Q177.27978515625 -5.7603759765625 219.60977172851562 18.07965087890625Q261.93975830078125 41.919677734375 298.9297180175781 81.25970458984375Q335.919677734375 120.5997314453125 360.919677734375 168.5997314453125L378.199462890625 154.97991943359375Q351.199462890625 94.97991943359375 309.03948974609375 50.3199462890625Q266.8795166015625 5.65997314453125 216.39959716796875 -19.170013427734375Q165.919677734375 -44 113.27978515625 -44ZM68.89959716796875 132.57965087890625Q95.2396240234375 137.61981201171875 127.919677734375 153.46987915039062Q160.5997314453125 169.3199462890625 190.77978515625 192.65997314453125Q220.9598388671875 216 240.46987915039062 244.01004028320312Q259.97991943359375 272.02008056640625 259.97991943359375 301.38018798828125Q259.97991943359375 312.38018798828125 255.97991943359375 317.06024169921875Q251.97991943359375 321.74029541015625 241.61981201171875 321.74029541015625Q218.27978515625 321.74029541015625 192.5997314453125 304.56024169921875Q166.919677734375 287.38018798828125 142.57965087890625 259.6900939941406Q118.2396240234375 232 98.89959716796875 198.639892578125Q79.5595703125 165.27978515625 68.89959716796875 132.57965087890625Z"/>
</svg>